<svg xmlns="http://www.w3.org/2000/svg" version="1.1" xmlns:xlink="http://www.w3.org/1999/xlink" xmlns:svgjs="http://svgjs.dev/svgjs" width="1500" height="1500" viewBox="0 0 1500 1500"><rect width="1500" height="1500" fill="#000000"></rect><g transform="matrix(0.6666666666666666,0,0,0.6666666666666666,249.39393939393938,583.7829147167)"><svg viewBox="0 0 396 132" data-background-color="#ffffff" preserveAspectRatio="xMidYMid meet" height="500" width="1500" xmlns="http://www.w3.org/2000/svg" xmlns:xlink="http://www.w3.org/1999/xlink"><g id="tight-bounds" transform="matrix(1,0,0,1,0.2400000000000091,-0.17803422781318545)"><svg viewBox="0 0 395.52 132.35606845562637" height="132.35606845562637" width="395.52"><g><svg viewBox="0 0 640.9566239572125 214.48851839999998" height="132.35606845562637" width="395.52"><g transform="matrix(1,0,0,1,0,19.56670066897982)"><svg viewBox="0 0 395.52 175.35511706204034" height="175.35511706204034" width="395.52"><g id="textblocktransform"><svg viewBox="0 0 395.52 175.35511706204034" height="175.35511706204034" width="395.52" id="textblock"><g><svg viewBox="0 0 395.52 131.0938238415281" height="131.0938238415281" width="395.52"><g transform="matrix(1,0,0,1,0,0)"><svg width="395.52" viewBox="1.45 -46.2 145.49 46.85" height="131.0938238415281" data-palette-color="#6a18bf"><g class="wordmark-text-0" data-fill-palette-color="primary" id="text-0"><path d="M19.4-35.75Q24.15-35.75 27.18-33.18 30.2-30.6 30.2-25.45L30.2-25.45Q30.2-21.35 27.45-17.82 24.7-14.3 20.43-12.2 16.15-10.1 11.85-10.1L11.85-10.1Q11.4-10.1 11.3-10.2L11.3-10.2 11.55-11.55Q14.9-11.9 18.1-13.65 21.3-15.4 23.33-18.23 25.35-21.05 25.35-24.5L25.35-24.5Q25.35-28.25 23.08-30.5 20.8-32.75 16.35-32.75L16.35-32.75Q12.9-32.75 9.08-31.13 5.25-29.5 2.4-26.9L2.4-26.9 1.45-27.95Q5.1-31.35 9.98-33.55 14.85-35.75 19.4-35.75L19.4-35.75ZM9.25-28.5L9.25-1.1 4.65 0.65 4.65-26.7 9.25-28.5ZM47.5-25.45Q50.2-25.45 52-24 53.8-22.55 53.8-19.7L53.8-19.7Q53.8-17.4 51.32-14.58 48.85-11.75 45.52-9.4 42.2-7.05 39.85-6.1L39.85-6.1Q41.1-4.1 42.7-3.33 44.3-2.55 46.45-2.55L46.45-2.55Q48.85-2.55 51.22-3.78 53.6-5 55.15-6.95L55.15-6.95 55.75-5.9Q53.3-2.75 50.55-1.07 47.8 0.6 43.8 0.6L43.8 0.6Q40.75 0.6 38.35-0.9 35.95-2.4 34.6-4.93 33.25-7.45 33.25-10.4L33.25-10.4Q33.25-14.1 35.25-17.6 37.25-21.1 40.55-23.28 43.85-25.45 47.5-25.45L47.5-25.45ZM44.9-22.3Q42.7-22.3 40.97-20.9 39.25-19.5 38.27-17.3 37.3-15.1 37.3-12.75L37.3-12.75Q37.3-9.65 38.75-7.45L38.75-7.45Q40.85-8.4 43.3-10.33 45.75-12.25 47.45-14.5 49.15-16.75 49.15-18.6L49.15-18.6Q49.15-22.3 44.9-22.3L44.9-22.3ZM80.89-46.2L80.89-4.45Q80.89-3.75 81.22-3.18 81.55-2.6 82.25-2.6L82.25-2.6Q82.94-2.6 83.64-3.23 84.34-3.85 84.69-4.6L84.69-4.6 85.64-3.8Q84.84-2.1 83.37-0.93 81.89 0.25 80.5 0.25L80.5 0.25Q78.19 0.25 77.14-1.05 76.09-2.35 76.14-5.55L76.14-5.55 75.94-5.55Q72.89 0.6 68.5 0.6L68.5 0.6Q64.14 0.6 61.82-2.43 59.49-5.45 59.49-10L59.49-10Q59.49-13.6 61.05-17.15 62.59-20.7 65.47-23 68.34-25.3 72.09-25.3L72.09-25.3Q74.44-25.3 76.19-24.1L76.19-24.1 76.19-44.3 80.89-46.2ZM71.8-22.35Q69-22.35 67.17-20.6 65.34-18.85 64.5-16.38 63.64-13.9 63.64-11.75L63.64-11.75Q63.64-10.05 64.25-8 64.84-5.95 66.19-4.48 67.55-3 69.64-3L69.64-3Q73.44-3 74.82-6.28 76.19-9.55 76.19-13.5L76.19-13.5 76.19-20.35Q75.34-21.25 74.22-21.8 73.09-22.35 71.8-22.35L71.8-22.35ZM101.99-25Q104.44-25 106.62-23.95 108.79-22.9 109.79-20.75L109.79-20.75 106.19-18.8Q105.39-19.95 103.99-20.88 102.59-21.8 100.99-21.8L100.99-21.8Q98.44-21.8 96.54-20.48 94.64-19.15 93.64-16.9 92.64-14.65 92.64-11.9L92.64-11.9Q92.64-7.95 93.99-5.48 95.34-3 98.24-3L98.24-3Q102.34-3 103.89-6.3 105.44-9.6 105.44-13.5L105.44-13.5 105.44-15.75 109.84-17.6 109.84-4.45Q109.84-3.8 110.19-3.2 110.54-2.6 111.24-2.6L111.24-2.6Q112.69-2.6 113.89-4.6L113.89-4.6 114.64-3.8Q114.04-2.1 112.54-0.93 111.04 0.25 109.54 0.25L109.54 0.25Q107.39 0.25 106.37-1.35 105.34-2.95 105.34-5.6L105.34-5.6 105.24-5.6Q103.99-2.95 101.87-1.18 99.74 0.6 97.39 0.6L97.39 0.6Q93.14 0.6 90.97-2.33 88.79-5.25 88.79-10.15L88.79-10.15Q88.79-14.05 90.54-17.48 92.29-20.9 95.32-22.95 98.34-25 101.99-25L101.99-25ZM124.19-46.2L124.19-4.2Q124.19-3.6 124.54-3.05 124.89-2.5 125.74-2.5L125.74-2.5Q126.44-2.5 127.22-3.13 127.99-3.75 128.39-4.45L128.39-4.45 129.24-3.7Q128.39-2.05 126.89-0.9 125.39 0.25 123.89 0.25L123.89 0.25Q119.69 0.25 119.69-4.8L119.69-4.8 119.69-44.3 124.19-46.2ZM139.79-27.05Q141.49-27.05 142.26-26.45 143.04-25.85 143.04-24.6L143.04-24.6Q143.04-23.25 142.51-22.2 141.99-21.15 141.39-20.4 140.79-19.65 140.59-19.35L140.59-19.35Q141.19-18.35 142.84-17L142.84-17Q144.19-15.85 144.99-14.95 145.79-14.05 146.36-12.53 146.94-11 146.94-8.8L146.94-8.8Q146.94-6.2 145.76-4.05 144.59-1.9 142.51-0.65 140.44 0.6 137.84 0.6L137.84 0.6Q136.24 0.6 134.34-0.08 132.44-0.75 131.54-2L131.54-2 134.89-6.45Q136.09-4.9 137.41-3.8 138.74-2.7 140.29-2.7L140.29-2.7Q142.44-2.7 143.96-4.13 145.49-5.55 145.49-7.55L145.49-7.55Q145.49-9.15 144.16-10.73 142.84-12.3 140.44-14.45L140.44-14.45Q140.14-14.7 139.29-15.48 138.44-16.25 138.04-16.75L138.04-16.75 134.54-11.6 132.94-12.65 136.94-18.2Q136.24-20.15 136.24-22.05L136.24-22.05Q136.24-24.2 137.19-25.63 138.14-27.05 139.79-27.05L139.79-27.05ZM139.79-25.1Q139.14-25.1 138.96-24.75 138.79-24.4 138.79-23.7L138.79-23.7Q138.79-22.8 139.04-22.15 139.29-21.5 139.39-21.25L139.39-21.25Q139.94-21.6 140.41-22.53 140.89-23.45 140.89-24.1L140.89-24.1Q140.89-24.55 140.61-24.83 140.34-25.1 139.79-25.1L139.79-25.1Z" fill="#ffffff" data-fill-palette-color="primary"></path></g></svg></g></svg></g><g transform="matrix(1,0,0,1,163.310208,162.04192939874068)"><svg viewBox="0 0 232.209792 13.313187663299663" height="13.313187663299663" width="232.209792"><g transform="matrix(1,0,0,1,0,0)"><svg width="232.209792" viewBox="1.45 -46.2 1069.08 61.300000000000004" height="13.313187663299663" data-palette-color="#7f1ee3"><path d="M19.4-35.75Q24.15-35.75 27.18-33.18 30.2-30.6 30.2-25.45L30.2-25.45Q30.2-21.35 27.45-17.82 24.7-14.3 20.43-12.2 16.15-10.1 11.85-10.1L11.85-10.1Q11.4-10.1 11.3-10.2L11.3-10.2 11.55-11.55Q14.9-11.9 18.1-13.65 21.3-15.4 23.33-18.23 25.35-21.05 25.35-24.5L25.35-24.5Q25.35-28.25 23.08-30.5 20.8-32.75 16.35-32.75L16.35-32.75Q12.9-32.75 9.08-31.13 5.25-29.5 2.4-26.9L2.4-26.9 1.45-27.95Q5.1-31.35 9.98-33.55 14.85-35.75 19.4-35.75L19.4-35.75ZM9.25-28.5L9.25-1.1 4.65 0.65 4.65-26.7 9.25-28.5ZM43.35-25.45Q46.05-25.45 47.85-24 49.65-22.55 49.65-19.7L49.65-19.7Q49.65-17.4 47.17-14.58 44.7-11.75 41.37-9.4 38.05-7.05 35.7-6.1L35.7-6.1Q36.95-4.1 38.55-3.33 40.15-2.55 42.3-2.55L42.3-2.55Q44.7-2.55 47.07-3.78 49.45-5 51-6.95L51-6.95 51.6-5.9Q49.15-2.75 46.4-1.07 43.65 0.6 39.65 0.6L39.65 0.6Q36.6 0.6 34.2-0.9 31.8-2.4 30.45-4.93 29.1-7.45 29.1-10.4L29.1-10.4Q29.1-14.1 31.1-17.6 33.1-21.1 36.4-23.28 39.7-25.45 43.35-25.45L43.35-25.45ZM40.75-22.3Q38.55-22.3 36.82-20.9 35.1-19.5 34.12-17.3 33.15-15.1 33.15-12.75L33.15-12.75Q33.15-9.65 34.6-7.45L34.6-7.45Q36.7-8.4 39.15-10.33 41.6-12.25 43.3-14.5 45-16.75 45-18.6L45-18.6Q45-22.3 40.75-22.3L40.75-22.3ZM76.75-46.2L76.75-4.45Q76.75-3.75 77.07-3.18 77.4-2.6 78.1-2.6L78.1-2.6Q78.8-2.6 79.5-3.23 80.2-3.85 80.55-4.6L80.55-4.6 81.5-3.8Q80.7-2.1 79.22-0.93 77.75 0.25 76.35 0.25L76.35 0.25Q74.05 0.25 73-1.05 71.95-2.35 72-5.55L72-5.55 71.8-5.55Q68.75 0.6 64.35 0.6L64.35 0.6Q60 0.6 57.67-2.43 55.35-5.45 55.35-10L55.35-10Q55.35-13.6 56.9-17.15 58.45-20.7 61.32-23 64.2-25.3 67.95-25.3L67.95-25.3Q70.3-25.3 72.05-24.1L72.05-24.1 72.05-44.3 76.75-46.2ZM67.65-22.35Q64.85-22.35 63.02-20.6 61.2-18.85 60.35-16.38 59.5-13.9 59.5-11.75L59.5-11.75Q59.5-10.05 60.1-8 60.7-5.95 62.05-4.48 63.4-3 65.5-3L65.5-3Q69.3-3 70.67-6.28 72.05-9.55 72.05-13.5L72.05-13.5 72.05-20.35Q71.2-21.25 70.07-21.8 68.95-22.35 67.65-22.35L67.65-22.35ZM97.84-25Q100.29-25 102.47-23.95 104.64-22.9 105.64-20.75L105.64-20.75 102.04-18.8Q101.24-19.95 99.84-20.88 98.44-21.8 96.84-21.8L96.84-21.8Q94.29-21.8 92.39-20.48 90.49-19.15 89.49-16.9 88.49-14.65 88.49-11.9L88.49-11.9Q88.49-7.95 89.84-5.48 91.19-3 94.09-3L94.09-3Q98.19-3 99.74-6.3 101.29-9.6 101.29-13.5L101.29-13.5 101.29-15.75 105.69-17.6 105.69-4.45Q105.69-3.8 106.04-3.2 106.39-2.6 107.09-2.6L107.09-2.6Q108.54-2.6 109.74-4.6L109.74-4.6 110.49-3.8Q109.89-2.1 108.39-0.93 106.89 0.25 105.39 0.25L105.39 0.25Q103.24 0.25 102.22-1.35 101.19-2.95 101.19-5.6L101.19-5.6 101.09-5.6Q99.84-2.95 97.72-1.18 95.59 0.6 93.24 0.6L93.24 0.6Q88.99 0.6 86.82-2.33 84.64-5.25 84.64-10.15L84.64-10.15Q84.64-14.05 86.39-17.48 88.14-20.9 91.17-22.95 94.19-25 97.84-25L97.84-25ZM120.04-46.2L120.04-4.2Q120.04-3.6 120.39-3.05 120.74-2.5 121.59-2.5L121.59-2.5Q122.29-2.5 123.07-3.13 123.84-3.75 124.24-4.45L124.24-4.45 125.09-3.7Q124.24-2.05 122.74-0.9 121.24 0.25 119.74 0.25L119.74 0.25Q115.54 0.25 115.54-4.8L115.54-4.8 115.54-44.3 120.04-46.2ZM145.79-41.7L144.09-30.05 142.44-29.45 140.39-39.85 145.79-41.7ZM145.74-24.8L145.74-4.2Q145.74-3.45 146.11-2.98 146.49-2.5 147.19-2.5L147.19-2.5Q147.74-2.5 148.41-3 149.09-3.5 149.79-4.45L149.79-4.45 150.59-3.7Q149.44-1.55 147.81-0.65 146.19 0.25 144.84 0.25L144.84 0.25Q143.04 0.25 142.06-0.9 141.09-2.05 141.09-4.8L141.09-4.8 141.09-23 145.74-24.8ZM173.08-25.45Q175.08-25.45 175.68-23.98 176.28-22.5 176.28-19.9L176.28-19.9 176.28-18.35 176.28-4.2Q176.28-3.65 176.63-3.08 176.98-2.5 177.63-2.5L177.63-2.5Q178.48-2.5 179.08-3.05 179.68-3.6 180.28-4.45L180.28-4.45 181.03-3.7Q180.28-2.1 178.78-0.93 177.28 0.25 175.93 0.25L175.93 0.25Q173.93 0.25 172.83-1 171.73-2.25 171.73-4.8L171.73-4.8 171.73-18.05Q171.73-18.8 171.58-19.3 171.43-19.8 170.83-19.8L170.83-19.8Q168.78-19.8 166.63-15.85 164.48-11.9 162.96-7.03 161.43-2.15 161.43-0.6L161.43-0.6 157.08 0.7 157.08-20.7Q157.08-21.4 156.71-21.98 156.33-22.55 155.63-22.55L155.63-22.55Q154.43-22.55 153.03-20.4L153.03-20.4 152.28-21.2Q152.93-23 154.43-24.23 155.93-25.45 157.43-25.45L157.43-25.45Q159.53-25.45 160.56-24.45 161.58-23.45 161.58-21.7L161.58-21.7 161.58-8.55 161.78-8.55Q163.13-13 164.38-16.3 165.63-19.6 167.88-22.53 170.13-25.45 173.08-25.45L173.08-25.45ZM191.48-38.3L191.48-25 198.43-25 196.93-21.8 191.48-21.8 191.48-4.2Q191.48-3.45 191.93-2.98 192.38-2.5 193.13-2.5L193.13-2.5Q194.18-2.5 196.03-4.45L196.03-4.45 196.73-3.7Q195.78-1.8 194.46-0.88 193.13 0.05 191.96 0.28 190.78 0.5 190.78 0.3L190.78 0.3Q190.83 0.3 190.93 0.28 191.03 0.25 191.23 0.25L191.23 0.25Q186.83 0.25 186.83-4.8L186.83-4.8 186.83-21.8 183.08-21.8 184.63-25 186.83-25 186.83-36.5 191.48-38.3ZM212.83-25.45L213.73-24.4Q209.98-22 207.83-19.05 205.68-16.1 205.68-12.1L205.68-12.1Q205.68-9.85 206.63-7.58 207.58-5.3 209.48-3.8 211.38-2.3 214.03-2.3L214.03-2.3Q216.18-2.3 217.85-3.3 219.53-4.3 220.45-6 221.38-7.7 221.38-9.75L221.38-9.75Q221.38-12.1 219.95-14.55 218.53-17 216.23-18.7 213.93-20.4 211.53-20.6L211.53-20.6Q212.53-21.6 213.93-22.7 215.33-23.8 216.78-24.85L216.78-24.85Q220.23-23.7 222.23-20.48 224.23-17.25 224.23-13.3L224.23-13.3Q224.23-9.8 222.8-6.58 221.38-3.35 218.63-1.33 215.88 0.7 212.13 0.7L212.13 0.7Q209.13 0.7 206.6-0.78 204.08-2.25 202.63-4.8 201.18-7.35 201.18-10.45L201.18-10.45Q201.18-15.9 204.4-19.9 207.63-23.9 212.83-25.45L212.83-25.45ZM263.37-35.6L263.37-34.15Q257.82-33.4 253.37-30.33 248.92-27.25 246.4-22.58 243.87-17.9 243.87-12.45L243.87-12.45Q243.87-7.9 245.62-5.25 247.37-2.6 250.22-2.6L250.22-2.6Q253.02-2.6 255.6-6.48 258.17-10.35 259.75-16.63 261.32-22.9 261.32-29.7L261.32-29.7 266.02-31.55 266.02-5.35Q266.02-3.95 266.62-3.1 267.22-2.25 268.27-2.25L268.27-2.25Q269.07-2.25 269.92-2.78 270.77-3.3 271.22-4.05L271.22-4.05 271.92-3.4Q271.22-1.85 269.77-0.8 268.32 0.25 266.47 0.25L266.47 0.25Q264.17 0.25 262.75-1.35 261.32-2.95 261.32-5.9L261.32-5.9 261.32-15.45 261.07-15.45Q257.47 0.55 248.87 0.55L248.87 0.55Q244.42 0.55 241.72-2.58 239.02-5.7 239.02-11.15L239.02-11.15Q239.02-17.4 242.32-22.9 245.62-28.4 251.22-31.85 256.82-35.3 263.37-35.6L263.37-35.6ZM295.42-46.2L295.42-4.45Q295.42-3.75 295.75-3.18 296.07-2.6 296.77-2.6L296.77-2.6Q297.47-2.6 298.17-3.23 298.87-3.85 299.22-4.6L299.22-4.6 300.17-3.8Q299.37-2.1 297.9-0.93 296.42 0.25 295.02 0.25L295.02 0.25Q292.72 0.25 291.67-1.05 290.62-2.35 290.67-5.55L290.67-5.55 290.47-5.55Q287.42 0.6 283.02 0.6L283.02 0.6Q278.67 0.6 276.35-2.43 274.02-5.45 274.02-10L274.02-10Q274.02-13.6 275.57-17.15 277.12-20.7 280-23 282.87-25.3 286.62-25.3L286.62-25.3Q288.97-25.3 290.72-24.1L290.72-24.1 290.72-44.3 295.42-46.2ZM286.32-22.35Q283.52-22.35 281.7-20.6 279.87-18.85 279.02-16.38 278.17-13.9 278.17-11.75L278.17-11.75Q278.17-10.05 278.77-8 279.37-5.95 280.72-4.48 282.07-3 284.17-3L284.17-3Q287.97-3 289.35-6.28 290.72-9.55 290.72-13.5L290.72-13.5 290.72-20.35Q289.87-21.25 288.75-21.8 287.62-22.35 286.32-22.35L286.32-22.35ZM321.72-26.7Q323.72-26.05 324.82-24.55 325.92-23.05 325.92-21.1L325.92-21.1Q325.92-20.05 325.64-18.8 325.37-17.55 324.92-16.65L324.92-16.65 316.22 0.55Q316.12 0.65 315.79 0.75 315.47 0.85 315.22 0.85L315.22 0.85Q314.82 0.85 314.44 0.7 314.07 0.55 314.02 0.4L314.02 0.4 305.37-18.5Q304.12-20.8 302.77-20.8L302.77-20.8Q302.27-20.8 301.84-20.48 301.42-20.15 301.27-20.05L301.27-20.05 300.82-20.6Q301.42-22.5 303.04-23.75 304.67-25 306.32-25L306.32-25Q307.27-25 307.99-23.75 308.72-22.5 309.17-21.33 309.62-20.15 309.77-19.8L309.77-19.8 316.77-4.25 321.22-13.3Q321.27-13.45 321.64-14.4 322.02-15.35 322.02-16.25L322.02-16.25Q322.02-19.95 318.02-21.8L318.02-21.8 321.72-26.7ZM342.92-25.45Q345.62-25.45 347.42-24 349.22-22.55 349.22-19.7L349.22-19.7Q349.22-17.4 346.74-14.58 344.27-11.75 340.94-9.4 337.62-7.05 335.27-6.1L335.27-6.1Q336.52-4.1 338.12-3.33 339.72-2.55 341.87-2.55L341.87-2.55Q344.27-2.55 346.64-3.78 349.02-5 350.57-6.95L350.57-6.95 351.17-5.9Q348.72-2.75 345.97-1.07 343.22 0.6 339.22 0.6L339.22 0.6Q336.17 0.6 333.77-0.9 331.37-2.4 330.02-4.93 328.67-7.45 328.67-10.4L328.67-10.4Q328.67-14.1 330.67-17.6 332.67-21.1 335.97-23.28 339.27-25.45 342.92-25.45L342.92-25.45ZM340.32-22.3Q338.12-22.3 336.39-20.9 334.67-19.5 333.69-17.3 332.72-15.1 332.72-12.75L332.72-12.75Q332.72-9.65 334.17-7.45L334.17-7.45Q336.27-8.4 338.72-10.33 341.17-12.25 342.87-14.5 344.57-16.75 344.57-18.6L344.57-18.6Q344.57-22.3 340.32-22.3L340.32-22.3ZM374.16-25.45Q376.16-25.45 376.76-23.98 377.36-22.5 377.36-19.9L377.36-19.9 377.36-18.35 377.36-4.2Q377.36-3.65 377.71-3.08 378.06-2.5 378.71-2.5L378.71-2.5Q379.56-2.5 380.16-3.05 380.76-3.6 381.36-4.45L381.36-4.45 382.11-3.7Q381.36-2.1 379.86-0.93 378.36 0.25 377.01 0.25L377.01 0.25Q375.01 0.25 373.91-1 372.81-2.25 372.81-4.8L372.81-4.8 372.81-18.05Q372.81-18.8 372.66-19.3 372.51-19.8 371.91-19.8L371.91-19.8Q369.86-19.8 367.71-15.85 365.56-11.9 364.04-7.03 362.51-2.15 362.51-0.6L362.51-0.6 358.16 0.7 358.16-20.7Q358.16-21.4 357.79-21.98 357.41-22.55 356.71-22.55L356.71-22.55Q355.51-22.55 354.11-20.4L354.11-20.4 353.36-21.2Q354.01-23 355.51-24.23 357.01-25.45 358.51-25.45L358.51-25.45Q360.61-25.45 361.64-24.45 362.66-23.45 362.66-21.7L362.66-21.7 362.66-8.55 362.86-8.55Q364.21-13 365.46-16.3 366.71-19.6 368.96-22.53 371.21-25.45 374.16-25.45L374.16-25.45ZM392.56-38.3L392.56-25 399.51-25 398.01-21.8 392.56-21.8 392.56-4.2Q392.56-3.45 393.01-2.98 393.46-2.5 394.21-2.5L394.21-2.5Q395.26-2.5 397.11-4.45L397.11-4.45 397.81-3.7Q396.86-1.8 395.54-0.88 394.21 0.05 393.04 0.28 391.86 0.5 391.86 0.3L391.86 0.3Q391.91 0.3 392.01 0.28 392.11 0.25 392.31 0.25L392.31 0.25Q387.91 0.25 387.91-4.8L387.91-4.8 387.91-21.8 384.16-21.8 385.71-25 387.91-25 387.91-36.5 392.56-38.3ZM424.41-25.7L424.41-4.35Q424.41-3.6 424.78-3.13 425.16-2.65 425.86-2.65L425.86-2.65Q426.91-2.65 428.41-4.6L428.41-4.6 429.16-3.85Q428.11-1.6 426.63-0.68 425.16 0.25 425.16 0.25 425.16 0.25 423.86 0.25L423.86 0.25Q422.26 0.25 421.43-0.65 420.61-1.55 420.26-3.88 419.91-6.2 419.91-10.8L419.91-10.8Q419.91-13.55 419.96-15.2L419.96-15.2 419.56-16.2 419.41-16.2Q418.11-10.05 415.78-4.73 413.46 0.6 409.16 0.6L409.16 0.6Q407.56 0.6 406.83-0.2 406.11-1 405.96-2.38 405.81-3.75 405.81-6.6L405.81-6.6 405.81-20.7Q405.81-21.55 405.43-22.05 405.06-22.55 404.41-22.55L404.41-22.55Q403.21-22.55 401.71-20.55L401.71-20.55 401.11-21.35Q401.91-23.25 403.13-24.18 404.36-25.1 405.43-25.33 406.51-25.55 406.51-25.4L406.51-25.4Q406.46-25.4 406.36-25.38 406.26-25.35 406.06-25.35L406.06-25.35Q410.36-25.35 410.36-20.4L410.36-20.4 410.36-6Q410.36-4.9 410.61-4.42 410.86-3.95 411.21-3.95L411.21-3.95Q413.36-3.95 415.21-8.15 417.06-12.35 418.23-17.4 419.41-22.45 419.41-23.45L419.41-23.45 424.41-25.7ZM443.66-18.9Q441.41-16.55 439.78-12.78 438.16-9 438.16-5.9L438.16-5.9Q438.16-3.2 439.33-1.38 440.51 0.45 443.11 0.45L443.11 0.45Q445.21 0.45 447.13-0.65 449.06-1.75 450.41-3.5L450.41-3.5 449.86-4.25Q448.31-3.2 446.81-3.2L446.81-3.2Q444.46-3.2 443.26-4.85 442.06-6.5 442.06-8.85L442.06-8.85Q442.06-12.65 444.01-16.05 445.96-19.45 448.96-22.65L448.96-22.65 448.16-23.35Q444.66-21.15 441.76-21.15L441.76-21.15Q440.06-21.15 438.66-22.68 437.26-24.2 436.51-26.05L436.51-26.05 432.46-21.5Q432.81-20.5 434.36-19.2L434.36-19.2 431.01-12.2 432.86-11.35 436.11-18.5Q436.96-18.15 437.51-18.05 438.06-17.95 439.01-17.95L439.01-17.95Q441.46-17.95 443.51-19.05L443.51-19.05 443.66-18.9ZM468.35-25.45Q471.05-25.45 472.85-24 474.65-22.55 474.65-19.7L474.65-19.7Q474.65-17.4 472.18-14.58 469.7-11.75 466.38-9.4 463.05-7.05 460.7-6.1L460.7-6.1Q461.95-4.1 463.55-3.33 465.15-2.55 467.3-2.55L467.3-2.55Q469.7-2.55 472.08-3.78 474.45-5 476-6.95L476-6.95 476.6-5.9Q474.15-2.75 471.4-1.07 468.65 0.6 464.65 0.6L464.65 0.6Q461.6 0.6 459.2-0.9 456.8-2.4 455.45-4.93 454.1-7.45 454.1-10.4L454.1-10.4Q454.1-14.1 456.1-17.6 458.1-21.1 461.4-23.28 464.7-25.45 468.35-25.45L468.35-25.45ZM465.75-22.3Q463.55-22.3 461.83-20.9 460.1-19.5 459.13-17.3 458.15-15.1 458.15-12.75L458.15-12.75Q458.15-9.65 459.6-7.45L459.6-7.45Q461.7-8.4 464.15-10.33 466.6-12.25 468.3-14.5 470-16.75 470-18.6L470-18.6Q470-22.3 465.75-22.3L465.75-22.3ZM486.5-16.9Q486.5-18.2 485.6-19.13 484.7-20.05 483.45-20.05L483.45-20.05Q482.25-20.05 481.38-19.13 480.5-18.2 480.5-16.9L480.5-16.9Q480.5-15.75 481.38-14.85 482.25-13.95 483.45-13.95L483.45-13.95Q484.7-13.95 485.6-14.85 486.5-15.75 486.5-16.9L486.5-16.9ZM486.5-2.1Q486.5-3.35 485.6-4.25 484.7-5.15 483.45-5.15L483.45-5.15Q482.25-5.15 481.38-4.25 480.5-3.35 480.5-2.1L480.5-2.1Q480.5-0.85 481.38 0 482.25 0.85 483.45 0.85L483.45 0.85Q484.7 0.85 485.6 0 486.5-0.85 486.5-2.1L486.5-2.1ZM521.8-9Q520.6-5.05 518.1-2.53 515.6 0 511.6 0L511.6 0Q508.65 0 507.1-2.08 505.55-4.15 505.55-7.25L505.55-7.25 505.55-29.6Q505.55-30.9 505-31.75 504.45-32.6 503.25-32.6L503.25-32.6Q502.5-32.6 501.62-32.1 500.75-31.6 500.3-30.95L500.3-30.95 499.6-31.55Q500.25-33 501.72-34.1 503.2-35.2 504.65-35.2L504.65-35.2Q507.25-35.2 508.72-33.35 510.2-31.5 510.2-29.1L510.2-29.1 510.2-9.2Q510.2-6.45 510.85-4.58 511.5-2.7 513.7-2.7L513.7-2.7Q516.55-2.7 518.4-5.53 520.25-8.35 521.1-12.1 521.95-15.85 521.95-18.65L521.95-18.65 521.95-33.95 526.55-35.65 526.55-1.3Q526.55 2.05 525.15 4.9 523.75 7.75 521.12 9.45 518.5 11.15 515.05 11.15L515.05 11.15Q510.65 11.15 507.5 8.4L507.5 8.4 511.55 5Q512.3 6.45 513.8 7.68 515.3 8.9 517 8.9L517 8.9Q518.75 8.9 519.87 7.95 521 7 521.47 5.65 521.95 4.3 521.95 3.15L521.95 3.15 521.95-9 521.8-9ZM544.14-25.45L545.04-24.4Q541.29-22 539.14-19.05 536.99-16.1 536.99-12.1L536.99-12.1Q536.99-9.85 537.94-7.58 538.89-5.3 540.79-3.8 542.69-2.3 545.34-2.3L545.34-2.3Q547.49-2.3 549.17-3.3 550.84-4.3 551.77-6 552.69-7.7 552.69-9.75L552.69-9.75Q552.69-12.1 551.27-14.55 549.84-17 547.54-18.7 545.24-20.4 542.84-20.6L542.84-20.6Q543.84-21.6 545.24-22.7 546.64-23.8 548.09-24.85L548.09-24.85Q551.54-23.7 553.54-20.48 555.54-17.25 555.54-13.3L555.54-13.3Q555.54-9.8 554.12-6.58 552.69-3.35 549.94-1.33 547.19 0.7 543.44 0.7L543.44 0.7Q540.44 0.7 537.92-0.78 535.39-2.25 533.94-4.8 532.49-7.35 532.49-10.45L532.49-10.45Q532.49-15.9 535.72-19.9 538.94-23.9 544.14-25.45L544.14-25.45ZM581.94-25.7L581.94-4.35Q581.94-3.6 582.32-3.13 582.69-2.65 583.39-2.65L583.39-2.65Q584.44-2.65 585.94-4.6L585.94-4.6 586.69-3.85Q585.64-1.6 584.16-0.68 582.69 0.25 582.69 0.25 582.69 0.25 581.39 0.25L581.39 0.25Q579.79 0.25 578.97-0.65 578.14-1.55 577.79-3.88 577.44-6.2 577.44-10.8L577.44-10.8Q577.44-13.55 577.49-15.2L577.49-15.2 577.09-16.2 576.94-16.2Q575.64-10.05 573.32-4.73 570.99 0.6 566.69 0.6L566.69 0.6Q565.09 0.6 564.37-0.2 563.64-1 563.49-2.38 563.34-3.75 563.34-6.6L563.34-6.6 563.34-20.7Q563.34-21.55 562.97-22.05 562.59-22.55 561.94-22.55L561.94-22.55Q560.74-22.55 559.24-20.55L559.24-20.55 558.64-21.35Q559.44-23.25 560.66-24.18 561.89-25.1 562.97-25.33 564.04-25.55 564.04-25.4L564.04-25.4Q563.99-25.4 563.89-25.38 563.79-25.35 563.59-25.35L563.59-25.35Q567.89-25.35 567.89-20.4L567.89-20.4 567.89-6Q567.89-4.9 568.14-4.42 568.39-3.95 568.74-3.95L568.74-3.95Q570.89-3.95 572.74-8.15 574.59-12.35 575.76-17.4 576.94-22.45 576.94-23.45L576.94-23.45 581.94-25.7ZM601.19-18.9Q598.94-16.55 597.31-12.78 595.69-9 595.69-5.9L595.69-5.9Q595.69-3.2 596.86-1.38 598.04 0.45 600.64 0.45L600.64 0.45Q602.74 0.45 604.66-0.65 606.59-1.75 607.94-3.5L607.94-3.5 607.39-4.25Q605.84-3.2 604.34-3.2L604.34-3.2Q601.99-3.2 600.79-4.85 599.59-6.5 599.59-8.85L599.59-8.85Q599.59-12.65 601.54-16.05 603.49-19.45 606.49-22.65L606.49-22.65 605.69-23.35Q602.19-21.15 599.29-21.15L599.29-21.15Q597.59-21.15 596.19-22.68 594.79-24.2 594.04-26.05L594.04-26.05 589.99-21.5Q590.34-20.5 591.89-19.2L591.89-19.2 588.54-12.2 590.39-11.35 593.64-18.5Q594.49-18.15 595.04-18.05 595.59-17.95 596.54-17.95L596.54-17.95Q598.99-17.95 601.04-19.05L601.04-19.05 601.19-18.9ZM638.73-34.95L635.48-31.45Q633.93-29.6 633.28-28.15 632.63-26.7 632.63-25L632.63-25 632.63-5.55Q632.63-2.2 631.31 0.6 629.98 3.4 627.16 5.1 624.33 6.8 620.08 6.8L620.08 6.8Q618.08 6.8 615.96 6.08 613.83 5.35 612.03 4.15L612.03 4.15 616.23 0.75Q617.33 2.35 618.98 3.5 620.63 4.65 622.88 4.65L622.88 4.65Q625.63 4.65 626.81 2.9 627.98 1.15 627.98-1.25L627.98-1.25 627.98-22.1Q627.98-24.45 629.41-26.75 630.83-29.05 633.08-30.6L633.08-30.6 627.33-30.65Q625.38-30.65 624.01-29.98 622.63-29.3 621.28-27.8L621.28-27.8 620.38-28.6Q625.63-34.95 631.58-34.95L631.58-34.95 638.73-34.95ZM652.78-25.45L653.68-24.4Q649.93-22 647.78-19.05 645.63-16.1 645.63-12.1L645.63-12.1Q645.63-9.85 646.58-7.58 647.53-5.3 649.43-3.8 651.33-2.3 653.98-2.3L653.98-2.3Q656.13-2.3 657.8-3.3 659.48-4.3 660.4-6 661.33-7.7 661.33-9.75L661.33-9.75Q661.33-12.1 659.9-14.55 658.48-17 656.18-18.7 653.88-20.4 651.48-20.6L651.48-20.6Q652.48-21.6 653.88-22.7 655.28-23.8 656.73-24.85L656.73-24.85Q660.18-23.7 662.18-20.48 664.18-17.25 664.18-13.3L664.18-13.3Q664.18-9.8 662.75-6.58 661.33-3.35 658.58-1.33 655.83 0.7 652.08 0.7L652.08 0.7Q649.08 0.7 646.55-0.78 644.03-2.25 642.58-4.8 641.13-7.35 641.13-10.45L641.13-10.45Q641.13-15.9 644.35-19.9 647.58-23.9 652.78-25.45L652.78-25.45ZM690.58-25.7L690.58-4.35Q690.58-3.6 690.95-3.13 691.33-2.65 692.03-2.65L692.03-2.65Q693.08-2.65 694.58-4.6L694.58-4.6 695.33-3.85Q694.28-1.6 692.8-0.68 691.33 0.25 691.33 0.25 691.33 0.25 690.03 0.25L690.03 0.25Q688.43 0.25 687.6-0.65 686.78-1.55 686.43-3.88 686.08-6.2 686.08-10.8L686.08-10.8Q686.08-13.55 686.13-15.2L686.13-15.2 685.73-16.2 685.58-16.2Q684.28-10.05 681.95-4.73 679.63 0.6 675.33 0.6L675.33 0.6Q673.73 0.6 673-0.2 672.28-1 672.13-2.38 671.98-3.75 671.98-6.6L671.98-6.6 671.98-20.7Q671.98-21.55 671.6-22.05 671.23-22.55 670.58-22.55L670.58-22.55Q669.38-22.55 667.88-20.55L667.88-20.55 667.28-21.35Q668.08-23.25 669.3-24.18 670.53-25.1 671.6-25.33 672.68-25.55 672.68-25.4L672.68-25.4Q672.63-25.4 672.53-25.38 672.43-25.35 672.23-25.35L672.23-25.35Q676.53-25.35 676.53-20.4L676.53-20.4 676.53-6Q676.53-4.9 676.78-4.42 677.03-3.95 677.38-3.95L677.38-3.95Q679.53-3.95 681.38-8.15 683.23-12.35 684.4-17.4 685.58-22.45 685.58-23.45L685.58-23.45 690.58-25.7ZM709.82-18.9Q707.57-16.55 705.95-12.78 704.32-9 704.32-5.9L704.32-5.9Q704.32-3.2 705.5-1.38 706.67 0.45 709.27 0.45L709.27 0.45Q711.37 0.45 713.3-0.65 715.22-1.75 716.57-3.5L716.57-3.5 716.02-4.25Q714.47-3.2 712.97-3.2L712.97-3.2Q710.62-3.2 709.42-4.85 708.22-6.5 708.22-8.85L708.22-8.85Q708.22-12.65 710.17-16.05 712.12-19.45 715.12-22.65L715.12-22.65 714.32-23.35Q710.82-21.15 707.92-21.15L707.92-21.15Q706.22-21.15 704.82-22.68 703.42-24.2 702.67-26.05L702.67-26.05 698.62-21.5Q698.97-20.5 700.52-19.2L700.52-19.2 697.17-12.2 699.02-11.35 702.27-18.5Q703.12-18.15 703.67-18.05 704.22-17.95 705.17-17.95L705.17-17.95Q707.62-17.95 709.67-19.05L709.67-19.05 709.82-18.9ZM739.67-25.45Q741.67-25.45 742.27-23.98 742.87-22.5 742.87-19.9L742.87-19.9 742.87-18.35 742.87-4.2Q742.87-3.65 743.22-3.08 743.57-2.5 744.22-2.5L744.22-2.5Q745.07-2.5 745.67-3.05 746.27-3.6 746.87-4.45L746.87-4.45 747.62-3.7Q746.87-2.1 745.37-0.93 743.87 0.25 742.52 0.25L742.52 0.25Q740.52 0.25 739.42-1 738.32-2.25 738.32-4.8L738.32-4.8 738.32-18.05Q738.32-18.8 738.17-19.3 738.02-19.8 737.42-19.8L737.42-19.8Q735.37-19.8 733.22-15.85 731.07-11.9 729.55-7.03 728.02-2.15 728.02-0.6L728.02-0.6 723.67 0.7 723.67-20.7Q723.67-21.4 723.3-21.98 722.92-22.55 722.22-22.55L722.22-22.55Q721.02-22.55 719.62-20.4L719.62-20.4 718.87-21.2Q719.52-23 721.02-24.23 722.52-25.45 724.02-25.45L724.02-25.45Q726.12-25.45 727.15-24.45 728.17-23.45 728.17-21.7L728.17-21.7 728.17-8.55 728.37-8.55Q729.72-13 730.97-16.3 732.22-19.6 734.47-22.53 736.72-25.45 739.67-25.45L739.67-25.45ZM764.92-25.45Q767.62-25.45 769.42-24 771.22-22.55 771.22-19.7L771.22-19.7Q771.22-17.4 768.74-14.58 766.27-11.75 762.94-9.4 759.62-7.05 757.27-6.1L757.27-6.1Q758.52-4.1 760.12-3.33 761.72-2.55 763.87-2.55L763.87-2.55Q766.27-2.55 768.64-3.78 771.02-5 772.57-6.95L772.57-6.95 773.17-5.9Q770.72-2.75 767.97-1.07 765.22 0.6 761.22 0.6L761.22 0.6Q758.17 0.6 755.77-0.9 753.37-2.4 752.02-4.93 750.67-7.45 750.67-10.4L750.67-10.4Q750.67-14.1 752.67-17.6 754.67-21.1 757.97-23.28 761.27-25.45 764.92-25.45L764.92-25.45ZM762.32-22.3Q760.12-22.3 758.39-20.9 756.67-19.5 755.69-17.3 754.72-15.1 754.72-12.75L754.72-12.75Q754.72-9.65 756.17-7.45L756.17-7.45Q758.27-8.4 760.72-10.33 763.17-12.25 764.87-14.5 766.57-16.75 766.57-18.6L766.57-18.6Q766.57-22.3 762.32-22.3L762.32-22.3ZM798.72-25.7L798.72-2.7Q798.72 2 796.84 6.1 794.97 10.2 791.87 12.65 788.77 15.1 785.27 15.1L785.27 15.1Q783.92 15.1 782.72 14.7 781.52 14.3 780.22 13.35L780.22 13.35 783.72 8.9Q784.77 9.95 786.19 10.6 787.62 11.25 788.87 11.25L788.87 11.25Q790.42 11.25 791.67 9.4 792.92 7.55 793.64 4.3 794.37 1.05 794.37-3.05L794.37-3.05Q794.37-12.35 794.42-15L794.42-15 794.42-18 794.12-18Q790.02 0.6 783.47 0.6L783.47 0.6Q782.02 0.6 781.32 0.03 780.62-0.55 780.37-2.05 780.12-3.55 780.12-6.6L780.12-6.6 780.12-20.7Q780.12-21.5 779.72-22.05 779.32-22.6 778.72-22.6L778.72-22.6Q777.47-22.6 776.07-20.55L776.07-20.55 775.27-21.35Q776.37-23.7 777.44-24.55 778.52-25.4 780.57-25.4L780.57-25.4Q782.57-25.4 783.57-24.13 784.57-22.85 784.57-20.4L784.57-20.4 784.57-6.75Q784.57-4.9 785.62-4.9L785.62-4.9Q786.87-4.9 788.82-8.3 790.77-11.7 792.27-16.18 793.77-20.65 793.77-23.45L793.77-23.45 798.72-25.7ZM828.66-36.4Q832.01-36.4 835.01-34.88 838.01-33.35 840.06-30.55L840.06-30.55 836.16-25.75Q834.91-29.25 832.44-31.55 829.96-33.85 826.56-33.85L826.56-33.85Q823.31-33.85 821.51-32 819.71-30.15 819.71-27.25L819.71-27.25Q819.71-24.55 821.01-22.75 822.31-20.95 824.16-19.85 826.01-18.75 829.16-17.35L829.16-17.35Q832.16-16 833.89-15 835.61-14 836.81-12.4 838.01-10.8 838.01-8.45L838.01-8.45Q838.06-4.1 835.21-1.75 832.36 0.6 827.81 0.6L827.81 0.6Q824.46 0.6 821.44-0.73 818.41-2.05 816.61-4.75L816.61-4.75 820.51-9.1Q822.21-5.1 824.66-3.43 827.11-1.75 829.41-1.75L829.41-1.75Q831.56-1.75 833.09-2.93 834.61-4.1 834.61-6L834.61-6Q834.61-7.75 833.54-9.08 832.46-10.4 830.86-11.33 829.26-12.25 826.51-13.5L826.51-13.5Q823.01-15.1 820.91-16.4 818.81-17.7 817.31-19.83 815.81-21.95 815.81-25L815.81-25Q815.81-28.2 817.49-30.83 819.16-33.45 822.11-34.93 825.06-36.4 828.66-36.4L828.66-36.4ZM849.56-38.3L849.56-25 856.51-25 855.01-21.8 849.56-21.8 849.56-4.2Q849.56-3.45 850.01-2.98 850.46-2.5 851.21-2.5L851.21-2.5Q852.26-2.5 854.11-4.45L854.11-4.45 854.81-3.7Q853.86-1.8 852.53-0.88 851.21 0.05 850.03 0.28 848.86 0.5 848.86 0.3L848.86 0.3Q848.91 0.3 849.01 0.28 849.11 0.25 849.31 0.25L849.31 0.25Q844.91 0.25 844.91-4.8L844.91-4.8 844.91-21.8 841.16-21.8 842.71-25 844.91-25 844.91-36.5 849.56-38.3ZM872.86-25Q875.31-25 877.48-23.95 879.66-22.9 880.66-20.75L880.66-20.75 877.06-18.8Q876.26-19.95 874.86-20.88 873.46-21.8 871.86-21.8L871.86-21.8Q869.31-21.8 867.41-20.48 865.51-19.15 864.51-16.9 863.51-14.65 863.51-11.9L863.51-11.9Q863.51-7.95 864.86-5.48 866.21-3 869.11-3L869.11-3Q873.21-3 874.76-6.3 876.31-9.6 876.31-13.5L876.31-13.5 876.31-15.75 880.71-17.6 880.71-4.45Q880.71-3.8 881.06-3.2 881.41-2.6 882.11-2.6L882.11-2.6Q883.56-2.6 884.76-4.6L884.76-4.6 885.51-3.8Q884.91-2.1 883.41-0.93 881.91 0.25 880.41 0.25L880.41 0.25Q878.26 0.25 877.23-1.35 876.21-2.95 876.21-5.6L876.21-5.6 876.11-5.6Q874.86-2.95 872.73-1.18 870.61 0.6 868.26 0.6L868.26 0.6Q864.01 0.6 861.83-2.33 859.66-5.25 859.66-10.15L859.66-10.15Q859.66-14.05 861.41-17.48 863.16-20.9 866.18-22.95 869.21-25 872.86-25L872.86-25ZM899.75-18.9Q897.5-16.55 895.88-12.78 894.25-9 894.25-5.9L894.25-5.9Q894.25-3.2 895.43-1.38 896.6 0.45 899.2 0.45L899.2 0.45Q901.3 0.45 903.23-0.65 905.15-1.75 906.5-3.5L906.5-3.5 905.95-4.25Q904.4-3.2 902.9-3.2L902.9-3.2Q900.55-3.2 899.35-4.85 898.15-6.5 898.15-8.85L898.15-8.85Q898.15-12.65 900.1-16.05 902.05-19.45 905.05-22.65L905.05-22.65 904.25-23.35Q900.75-21.15 897.85-21.15L897.85-21.15Q896.15-21.15 894.75-22.68 893.35-24.2 892.6-26.05L892.6-26.05 888.55-21.5Q888.9-20.5 890.45-19.2L890.45-19.2 887.1-12.2 888.95-11.35 892.2-18.5Q893.05-18.15 893.6-18.05 894.15-17.95 895.1-17.95L895.1-17.95Q897.55-17.95 899.6-19.05L899.6-19.05 899.75-18.9ZM917.6-38.3L917.6-25 924.55-25 923.05-21.8 917.6-21.8 917.6-4.2Q917.6-3.45 918.05-2.98 918.5-2.5 919.25-2.5L919.25-2.5Q920.3-2.5 922.15-4.45L922.15-4.45 922.85-3.7Q921.9-1.8 920.58-0.88 919.25 0.05 918.08 0.28 916.9 0.5 916.9 0.3L916.9 0.3Q916.95 0.3 917.05 0.28 917.15 0.25 917.35 0.25L917.35 0.25Q912.95 0.25 912.95-4.8L912.95-4.8 912.95-21.8 909.2-21.8 910.75-25 912.95-25 912.95-36.5 917.6-38.3ZM935-27.05Q936.7-27.05 937.47-26.45 938.25-25.85 938.25-24.6L938.25-24.6Q938.25-23.25 937.72-22.2 937.2-21.15 936.6-20.4 936-19.65 935.8-19.35L935.8-19.35Q936.4-18.35 938.05-17L938.05-17Q939.4-15.85 940.2-14.95 941-14.05 941.57-12.53 942.15-11 942.15-8.8L942.15-8.8Q942.15-6.2 940.97-4.05 939.8-1.9 937.72-0.65 935.65 0.6 933.05 0.6L933.05 0.6Q931.45 0.6 929.55-0.08 927.65-0.75 926.75-2L926.75-2 930.1-6.45Q931.3-4.9 932.62-3.8 933.95-2.7 935.5-2.7L935.5-2.7Q937.65-2.7 939.17-4.13 940.7-5.55 940.7-7.55L940.7-7.55Q940.7-9.15 939.37-10.73 938.05-12.3 935.65-14.45L935.65-14.45Q935.35-14.7 934.5-15.48 933.65-16.25 933.25-16.75L933.25-16.75 929.75-11.6 928.15-12.65 932.15-18.2Q931.45-20.15 931.45-22.05L931.45-22.05Q931.45-24.2 932.4-25.63 933.35-27.05 935-27.05L935-27.05ZM935-25.1Q934.35-25.1 934.17-24.75 934-24.4 934-23.7L934-23.7Q934-22.8 934.25-22.15 934.5-21.5 934.6-21.25L934.6-21.25Q935.15-21.6 935.62-22.53 936.1-23.45 936.1-24.1L936.1-24.1Q936.1-24.55 935.82-24.83 935.55-25.1 935-25.1L935-25.1ZM983.59-36.5L978.94-34.7 978.94-16.8 964.89-16.8 964.89-36.5 960.19-34.7 960.19-16.8 957.59-16.8 956.14-13.85 960.19-13.85 960.19 0.7 964.89-1 964.89-13.85 978.94-13.85 978.94 0.7 983.59-1 983.59-36.5ZM1003.49-25.45Q1006.19-25.45 1007.99-24 1009.79-22.55 1009.79-19.7L1009.79-19.7Q1009.79-17.4 1007.32-14.58 1004.84-11.75 1001.52-9.4 998.19-7.05 995.84-6.1L995.84-6.1Q997.09-4.1 998.69-3.33 1000.29-2.55 1002.44-2.55L1002.44-2.55Q1004.84-2.55 1007.22-3.78 1009.59-5 1011.14-6.95L1011.14-6.95 1011.74-5.9Q1009.29-2.75 1006.54-1.07 1003.79 0.6 999.79 0.6L999.79 0.6Q996.74 0.6 994.34-0.9 991.94-2.4 990.59-4.93 989.24-7.45 989.24-10.4L989.24-10.4Q989.24-14.1 991.24-17.6 993.24-21.1 996.54-23.28 999.84-25.45 1003.49-25.45L1003.49-25.45ZM1000.89-22.3Q998.69-22.3 996.97-20.9 995.24-19.5 994.27-17.3 993.29-15.1 993.29-12.75L993.29-12.75Q993.29-9.65 994.74-7.45L994.74-7.45Q996.84-8.4 999.29-10.33 1001.74-12.25 1003.44-14.5 1005.14-16.75 1005.14-18.6L1005.14-18.6Q1005.14-22.3 1000.89-22.3L1000.89-22.3ZM1026.89-18.9Q1024.64-16.55 1023.01-12.78 1021.39-9 1021.39-5.9L1021.39-5.9Q1021.39-3.2 1022.56-1.38 1023.74 0.45 1026.34 0.45L1026.34 0.45Q1028.44 0.45 1030.36-0.65 1032.29-1.75 1033.64-3.5L1033.64-3.5 1033.09-4.25Q1031.54-3.2 1030.04-3.2L1030.04-3.2Q1027.69-3.2 1026.49-4.85 1025.29-6.5 1025.29-8.85L1025.29-8.85Q1025.29-12.65 1027.24-16.05 1029.19-19.45 1032.19-22.65L1032.19-22.65 1031.39-23.35Q1027.89-21.15 1024.99-21.15L1024.99-21.15Q1023.29-21.15 1021.89-22.68 1020.49-24.2 1019.74-26.05L1019.74-26.05 1015.69-21.5Q1016.04-20.5 1017.59-19.2L1017.59-19.2 1014.24-12.2 1016.09-11.35 1019.34-18.5Q1020.19-18.15 1020.74-18.05 1021.29-17.95 1022.24-17.95L1022.24-17.95Q1024.69-17.95 1026.74-19.05L1026.74-19.05 1026.89-18.9ZM1051.59-25.45Q1054.29-25.45 1056.09-24 1057.89-22.55 1057.89-19.7L1057.89-19.7Q1057.89-17.4 1055.41-14.58 1052.94-11.75 1049.61-9.4 1046.29-7.05 1043.94-6.1L1043.94-6.1Q1045.19-4.1 1046.79-3.33 1048.39-2.55 1050.54-2.55L1050.54-2.55Q1052.94-2.55 1055.31-3.78 1057.69-5 1059.24-6.95L1059.24-6.95 1059.84-5.9Q1057.39-2.75 1054.64-1.07 1051.89 0.6 1047.89 0.6L1047.89 0.6Q1044.84 0.6 1042.44-0.9 1040.04-2.4 1038.69-4.93 1037.34-7.45 1037.34-10.4L1037.34-10.4Q1037.34-14.1 1039.34-17.6 1041.34-21.1 1044.64-23.28 1047.94-25.45 1051.59-25.45L1051.59-25.45ZM1048.99-22.3Q1046.79-22.3 1045.06-20.9 1043.34-19.5 1042.36-17.3 1041.39-15.1 1041.39-12.75L1041.39-12.75Q1041.39-9.65 1042.84-7.45L1042.84-7.45Q1044.94-8.4 1047.39-10.33 1049.84-12.25 1051.54-14.5 1053.24-16.75 1053.24-18.6L1053.24-18.6Q1053.24-22.3 1048.99-22.3L1048.99-22.3ZM1063.98-33.7L1066.08-7.45 1068.53-8.2 1070.53-35.6 1063.98-33.7ZM1070.33-2.1Q1070.33-3.35 1069.43-4.25 1068.53-5.15 1067.33-5.15L1067.33-5.15Q1066.08-5.15 1065.18-4.25 1064.28-3.35 1064.28-2.1L1064.28-2.1Q1064.28-0.85 1065.16 0 1066.03 0.85 1067.33 0.85L1067.33 0.85Q1068.53 0.85 1069.43 0 1070.33-0.85 1070.33-2.1L1070.33-2.1Z" opacity="1" transform="matrix(1,0,0,1,0,0)" fill="#ffffff" class="slogan-text-1" data-fill-palette-color="secondary" id="text-1"></path></svg></g></svg></g></svg></g></svg></g><g transform="matrix(1,0,0,1,426.46810555721254,0)"><svg viewBox="0 0 214.48851839999998 214.48851839999998" height="214.48851839999998" width="214.48851839999998"><g><svg></svg></g><g id="icon-0"><svg viewBox="0 0 214.48851839999998 214.48851839999998" height="214.48851839999998" width="214.48851839999998"><g></g><g transform="matrix(1,0,0,1,27.80406719999999,59.34165977393146)"><svg viewBox="0 0 158.880384 95.80519885213705" height="95.80519885213705" width="158.880384"><g><svg version="1.1" xmlns="http://www.w3.org/2000/svg" xmlns:xlink="http://www.w3.org/1999/xlink" x="0" y="0" viewBox="0.599 19.74299999999999 99.99799999999999 60.29900000000001" enable-background="new 0.599 19.744 100 60.3" xml:space="preserve" width="158.880384" height="95.80519885213705" class="icon-cg-0" data-fill-palette-color="quaternary" id="cg-0"><g fill="#ffffff" data-fill-palette-color="quaternary"><path d="M0.599 59.318c0 11.361 9.245 20.606 20.606 20.606 11.363 0 20.607-9.245 20.607-20.606 0-8.443-5.107-15.713-12.393-18.893l1.015-2.896 23.9 24.752c0.027 0.026 0.059 0.048 0.086 0.074 0.033 0.028 0.067 0.059 0.104 0.086 0.051 0.036 0.104 0.067 0.158 0.098 0.035 0.02 0.071 0.041 0.106 0.058 0.063 0.028 0.129 0.048 0.196 0.068 0.03 0.01 0.062 0.022 0.094 0.028 0.102 0.021 0.203 0.033 0.306 0.033 0.036 0 0.073-0.003 0.109-0.005l4.111-0.308c1.445 9.959 10.036 17.629 20.388 17.629 11.361 0 20.605-9.25 20.605-20.611 0-11.362-9.244-20.617-20.605-20.617-3.013 0-5.873 0.632-8.454 1.799l-5.558-10.337 2.006-6.9h3.294c0.807 0 1.459-1.01 1.459-1.816s-0.652-1.817-1.459-1.817H60.172c-0.807 0-1.46 1.01-1.46 1.817s0.653 1.816 1.46 1.816h4.772l-1.63 4.845H32.591l0.575-2.213c0.095-0.431-0.012-0.611-0.289-0.956-0.276-0.344-0.695-0.465-1.137-0.465h-9.127c-0.807 0-1.461 0.404-1.461 1.211 0 0.806 0.654 1.211 1.461 1.211h7.314l-0.578 2.927c-0.002 0.002-0.002 0.147-0.003 0.15l-0.914 4.255-1.767 5.075c-1.74-0.479-3.569-0.723-5.46-0.723C9.844 38.695 0.599 47.956 0.599 59.318zM62.458 31.855l-7.766 26.436L31.432 34.362l0.521-2.507H62.458zM63.009 62.167L80.1 60.898c0.492-0.035 0.935-0.32 1.172-0.754 0.239-0.434 0.239-0.958 0.006-1.393l-8.123-15.087c2.098-0.912 4.409-1.421 6.839-1.421 9.484 0 17.199 7.716 17.199 17.201 0 9.483-7.716 17.199-17.2 17.199C71.435 76.644 64.318 70.362 63.009 62.167zM77.64 58.155l-14.844 1.1c0.064-5.935 3.151-11.158 7.79-14.202L77.64 58.155zM57.467 59.657l7.389-25.33 4.224 7.721c-5.756 3.659-9.517 10.086-9.517 17.396 0 0.021 0 0.042 0 0.063L57.467 59.657zM4.006 59.318c0-9.484 7.715-17.2 17.199-17.2 1.496 0 2.949 0.193 4.332 0.554l-5.709 16.29c-0.266 0.76 0.133 1.592 0.895 1.858 0.16 0.058 0.323 0.083 0.482 0.083 0.603 0 1.167-0.377 1.378-0.978l5.706-16.275c5.96 2.705 10.118 8.707 10.118 15.667 0 9.484-7.716 17.2-17.2 17.2S4.006 68.803 4.006 59.318z" fill="#000000" data-fill-palette-color="quaternary"></path></g></svg></g></svg></g></svg></g></svg></g></svg></g><defs></defs><mask id="6b9ff340-8b25-448b-b9e7-733a83a44f29"><g id="SvgjsG1102"><svg viewBox="0 0 395.52 132.35606845562637" height="132.35606845562637" width="395.52"><g><svg viewBox="0 0 640.9566239572125 214.48851839999998" height="132.35606845562637" width="395.52"><g transform="matrix(1,0,0,1,0,19.56670066897982)"><svg viewBox="0 0 395.52 175.35511706204034" height="175.35511706204034" width="395.52"><g id="SvgjsG1101"><svg viewBox="0 0 395.52 175.35511706204034" height="175.35511706204034" width="395.52" id="SvgjsSvg1100"><g><svg viewBox="0 0 395.52 131.0938238415281" height="131.0938238415281" width="395.52"><g transform="matrix(1,0,0,1,0,0)"><svg width="395.52" viewBox="1.45 -46.2 145.49 46.85" height="131.0938238415281" data-palette-color="#6a18bf"><g class="wordmark-text-0" data-fill-palette-color="primary" id="SvgjsG1099"><path d="M19.4-35.75Q24.15-35.75 27.18-33.18 30.2-30.6 30.2-25.45L30.2-25.45Q30.2-21.35 27.45-17.82 24.7-14.3 20.43-12.2 16.15-10.1 11.85-10.1L11.85-10.1Q11.4-10.1 11.3-10.2L11.3-10.2 11.55-11.55Q14.9-11.9 18.1-13.65 21.3-15.4 23.33-18.23 25.35-21.05 25.35-24.5L25.35-24.5Q25.35-28.25 23.08-30.5 20.8-32.75 16.35-32.75L16.35-32.75Q12.9-32.75 9.08-31.13 5.25-29.5 2.4-26.9L2.4-26.9 1.45-27.95Q5.1-31.35 9.98-33.55 14.85-35.75 19.4-35.75L19.4-35.75ZM9.25-28.5L9.25-1.1 4.65 0.65 4.65-26.7 9.25-28.5ZM47.5-25.45Q50.2-25.45 52-24 53.8-22.55 53.8-19.7L53.8-19.7Q53.8-17.4 51.32-14.58 48.85-11.75 45.52-9.4 42.2-7.05 39.85-6.1L39.85-6.1Q41.1-4.1 42.7-3.33 44.3-2.55 46.45-2.55L46.45-2.55Q48.85-2.55 51.22-3.78 53.6-5 55.15-6.95L55.15-6.95 55.75-5.9Q53.3-2.75 50.55-1.07 47.8 0.6 43.8 0.6L43.8 0.6Q40.75 0.6 38.35-0.9 35.95-2.4 34.6-4.93 33.25-7.45 33.25-10.4L33.25-10.4Q33.25-14.1 35.25-17.6 37.25-21.1 40.55-23.28 43.85-25.45 47.5-25.45L47.5-25.45ZM44.9-22.3Q42.7-22.3 40.97-20.9 39.25-19.5 38.27-17.3 37.3-15.1 37.3-12.75L37.3-12.75Q37.3-9.65 38.75-7.45L38.75-7.45Q40.85-8.4 43.3-10.33 45.75-12.25 47.45-14.5 49.15-16.75 49.15-18.6L49.15-18.6Q49.15-22.3 44.9-22.3L44.9-22.3ZM80.89-46.2L80.89-4.45Q80.89-3.75 81.22-3.18 81.55-2.6 82.25-2.6L82.25-2.6Q82.94-2.6 83.64-3.23 84.34-3.85 84.69-4.6L84.69-4.6 85.64-3.8Q84.84-2.1 83.37-0.93 81.89 0.25 80.5 0.25L80.5 0.25Q78.19 0.25 77.14-1.05 76.09-2.35 76.14-5.55L76.14-5.55 75.94-5.55Q72.89 0.6 68.5 0.6L68.5 0.6Q64.14 0.6 61.82-2.43 59.49-5.45 59.49-10L59.49-10Q59.49-13.6 61.05-17.15 62.59-20.7 65.47-23 68.34-25.3 72.09-25.3L72.09-25.3Q74.44-25.3 76.19-24.1L76.19-24.1 76.19-44.3 80.89-46.2ZM71.8-22.35Q69-22.35 67.17-20.6 65.34-18.85 64.5-16.38 63.64-13.9 63.64-11.75L63.64-11.75Q63.64-10.05 64.25-8 64.84-5.95 66.19-4.48 67.55-3 69.64-3L69.64-3Q73.44-3 74.82-6.28 76.19-9.55 76.19-13.5L76.19-13.5 76.19-20.35Q75.34-21.25 74.22-21.8 73.09-22.35 71.8-22.35L71.8-22.35ZM101.99-25Q104.44-25 106.62-23.95 108.79-22.9 109.79-20.75L109.79-20.75 106.19-18.8Q105.39-19.95 103.99-20.88 102.59-21.8 100.99-21.8L100.99-21.8Q98.44-21.8 96.54-20.48 94.64-19.15 93.64-16.9 92.64-14.65 92.64-11.9L92.64-11.9Q92.64-7.95 93.99-5.48 95.34-3 98.24-3L98.24-3Q102.34-3 103.89-6.3 105.44-9.6 105.44-13.5L105.44-13.5 105.44-15.75 109.84-17.6 109.84-4.45Q109.84-3.8 110.19-3.2 110.54-2.6 111.24-2.6L111.24-2.6Q112.69-2.6 113.89-4.6L113.89-4.6 114.64-3.8Q114.04-2.1 112.54-0.93 111.04 0.25 109.54 0.25L109.54 0.25Q107.39 0.25 106.37-1.35 105.34-2.95 105.34-5.6L105.34-5.6 105.24-5.6Q103.99-2.95 101.87-1.18 99.74 0.6 97.39 0.6L97.39 0.6Q93.14 0.6 90.97-2.33 88.79-5.25 88.79-10.15L88.79-10.15Q88.79-14.05 90.54-17.48 92.29-20.9 95.32-22.95 98.34-25 101.99-25L101.99-25ZM124.19-46.2L124.19-4.2Q124.19-3.6 124.54-3.05 124.89-2.5 125.74-2.5L125.74-2.5Q126.44-2.5 127.22-3.13 127.99-3.75 128.39-4.45L128.39-4.45 129.24-3.7Q128.39-2.05 126.89-0.9 125.39 0.25 123.89 0.25L123.89 0.25Q119.69 0.25 119.69-4.8L119.69-4.8 119.69-44.3 124.19-46.2ZM139.79-27.05Q141.49-27.05 142.26-26.45 143.04-25.85 143.04-24.6L143.04-24.6Q143.04-23.25 142.51-22.2 141.99-21.15 141.39-20.4 140.79-19.65 140.59-19.35L140.59-19.35Q141.19-18.35 142.84-17L142.84-17Q144.19-15.85 144.99-14.95 145.79-14.05 146.36-12.53 146.94-11 146.94-8.8L146.94-8.8Q146.94-6.2 145.76-4.05 144.59-1.9 142.51-0.65 140.44 0.6 137.84 0.6L137.84 0.6Q136.24 0.6 134.34-0.08 132.44-0.75 131.54-2L131.54-2 134.89-6.45Q136.09-4.9 137.41-3.8 138.74-2.7 140.29-2.7L140.29-2.7Q142.44-2.7 143.96-4.13 145.49-5.55 145.49-7.55L145.49-7.55Q145.49-9.15 144.16-10.73 142.84-12.3 140.44-14.45L140.44-14.45Q140.14-14.7 139.29-15.48 138.44-16.25 138.04-16.75L138.04-16.75 134.54-11.6 132.94-12.65 136.94-18.2Q136.24-20.15 136.24-22.05L136.24-22.05Q136.24-24.2 137.19-25.63 138.14-27.05 139.79-27.05L139.79-27.05ZM139.79-25.1Q139.14-25.1 138.96-24.75 138.79-24.4 138.79-23.7L138.79-23.7Q138.79-22.8 139.04-22.15 139.29-21.5 139.39-21.25L139.39-21.25Q139.94-21.6 140.41-22.53 140.89-23.45 140.89-24.1L140.89-24.1Q140.89-24.55 140.61-24.83 140.34-25.1 139.79-25.1L139.79-25.1Z" fill="black"></path></g></svg></g></svg></g><g transform="matrix(1,0,0,1,163.310208,162.04192939874068)"><svg viewBox="0 0 232.209792 13.313187663299663" height="13.313187663299663" width="232.209792"><g transform="matrix(1,0,0,1,0,0)"><svg width="232.209792" viewBox="1.45 -46.2 1069.08 61.300000000000004" height="13.313187663299663" data-palette-color="#7f1ee3"><path d="M19.4-35.75Q24.15-35.75 27.18-33.18 30.2-30.6 30.2-25.45L30.2-25.45Q30.2-21.35 27.45-17.82 24.7-14.3 20.43-12.2 16.15-10.1 11.85-10.1L11.85-10.1Q11.4-10.1 11.3-10.2L11.3-10.2 11.55-11.55Q14.9-11.9 18.1-13.65 21.3-15.4 23.33-18.23 25.35-21.05 25.35-24.5L25.35-24.5Q25.35-28.25 23.08-30.5 20.8-32.75 16.35-32.75L16.35-32.75Q12.9-32.75 9.08-31.13 5.25-29.5 2.4-26.9L2.4-26.9 1.45-27.95Q5.1-31.35 9.98-33.55 14.85-35.75 19.4-35.75L19.4-35.75ZM9.25-28.5L9.25-1.1 4.65 0.65 4.65-26.7 9.25-28.5ZM43.35-25.45Q46.05-25.45 47.85-24 49.65-22.55 49.65-19.7L49.65-19.7Q49.65-17.4 47.17-14.58 44.7-11.75 41.37-9.4 38.05-7.05 35.7-6.1L35.7-6.1Q36.95-4.1 38.55-3.33 40.15-2.55 42.3-2.55L42.3-2.55Q44.7-2.55 47.07-3.78 49.45-5 51-6.95L51-6.95 51.6-5.9Q49.15-2.75 46.4-1.07 43.65 0.6 39.65 0.6L39.65 0.6Q36.6 0.6 34.2-0.9 31.8-2.4 30.45-4.93 29.1-7.45 29.1-10.4L29.1-10.4Q29.1-14.1 31.1-17.6 33.1-21.1 36.4-23.28 39.7-25.45 43.35-25.45L43.35-25.45ZM40.75-22.3Q38.55-22.3 36.82-20.9 35.1-19.5 34.12-17.3 33.15-15.1 33.15-12.75L33.15-12.75Q33.15-9.65 34.6-7.45L34.6-7.45Q36.7-8.4 39.15-10.33 41.6-12.25 43.3-14.5 45-16.75 45-18.6L45-18.6Q45-22.3 40.75-22.3L40.75-22.3ZM76.75-46.2L76.75-4.45Q76.75-3.75 77.07-3.18 77.4-2.6 78.1-2.6L78.1-2.6Q78.8-2.6 79.5-3.23 80.2-3.85 80.55-4.6L80.55-4.6 81.5-3.8Q80.7-2.1 79.22-0.93 77.75 0.25 76.35 0.25L76.35 0.25Q74.05 0.25 73-1.05 71.95-2.35 72-5.55L72-5.55 71.8-5.55Q68.75 0.6 64.35 0.6L64.35 0.6Q60 0.6 57.67-2.43 55.35-5.45 55.35-10L55.35-10Q55.35-13.6 56.9-17.15 58.45-20.7 61.32-23 64.2-25.3 67.95-25.3L67.95-25.3Q70.3-25.3 72.05-24.1L72.05-24.1 72.05-44.3 76.75-46.2ZM67.65-22.35Q64.85-22.35 63.02-20.6 61.2-18.85 60.35-16.38 59.5-13.9 59.5-11.75L59.5-11.75Q59.5-10.05 60.1-8 60.7-5.95 62.05-4.48 63.4-3 65.5-3L65.5-3Q69.3-3 70.67-6.28 72.05-9.55 72.05-13.5L72.05-13.5 72.05-20.35Q71.2-21.25 70.07-21.8 68.95-22.35 67.65-22.35L67.65-22.35ZM97.84-25Q100.29-25 102.47-23.95 104.64-22.9 105.64-20.75L105.64-20.75 102.04-18.8Q101.24-19.95 99.84-20.88 98.44-21.8 96.84-21.8L96.84-21.8Q94.29-21.8 92.39-20.48 90.49-19.15 89.49-16.9 88.49-14.65 88.49-11.9L88.49-11.9Q88.49-7.95 89.84-5.48 91.19-3 94.09-3L94.09-3Q98.19-3 99.74-6.3 101.29-9.6 101.29-13.5L101.29-13.5 101.29-15.75 105.69-17.6 105.69-4.45Q105.69-3.8 106.04-3.2 106.39-2.6 107.09-2.6L107.09-2.6Q108.54-2.6 109.74-4.6L109.74-4.6 110.49-3.8Q109.89-2.1 108.39-0.93 106.89 0.25 105.39 0.25L105.39 0.25Q103.24 0.25 102.22-1.35 101.19-2.95 101.19-5.6L101.19-5.6 101.09-5.6Q99.84-2.95 97.72-1.18 95.59 0.6 93.24 0.6L93.24 0.6Q88.99 0.6 86.82-2.33 84.64-5.25 84.64-10.15L84.64-10.15Q84.64-14.05 86.39-17.48 88.14-20.9 91.17-22.95 94.19-25 97.84-25L97.84-25ZM120.04-46.2L120.04-4.2Q120.04-3.6 120.39-3.05 120.74-2.5 121.59-2.5L121.59-2.5Q122.29-2.5 123.07-3.13 123.84-3.75 124.24-4.45L124.24-4.45 125.09-3.7Q124.24-2.05 122.74-0.9 121.24 0.25 119.74 0.25L119.74 0.25Q115.54 0.25 115.54-4.8L115.54-4.8 115.54-44.3 120.04-46.2ZM145.79-41.7L144.09-30.05 142.44-29.45 140.39-39.85 145.79-41.7ZM145.74-24.8L145.74-4.2Q145.74-3.45 146.11-2.98 146.49-2.5 147.19-2.5L147.19-2.5Q147.74-2.5 148.41-3 149.09-3.5 149.79-4.45L149.79-4.45 150.59-3.7Q149.44-1.55 147.81-0.65 146.19 0.25 144.84 0.25L144.84 0.25Q143.04 0.25 142.06-0.9 141.09-2.05 141.09-4.8L141.09-4.8 141.09-23 145.74-24.8ZM173.08-25.45Q175.08-25.45 175.68-23.98 176.28-22.5 176.28-19.9L176.28-19.9 176.28-18.35 176.28-4.2Q176.28-3.65 176.63-3.08 176.98-2.5 177.63-2.5L177.63-2.5Q178.48-2.5 179.08-3.05 179.68-3.6 180.28-4.45L180.28-4.45 181.03-3.7Q180.28-2.1 178.78-0.93 177.28 0.25 175.93 0.25L175.93 0.25Q173.93 0.25 172.83-1 171.73-2.25 171.73-4.8L171.73-4.8 171.73-18.05Q171.73-18.8 171.58-19.3 171.43-19.8 170.83-19.8L170.83-19.8Q168.78-19.8 166.63-15.85 164.48-11.9 162.96-7.03 161.43-2.15 161.43-0.6L161.43-0.6 157.08 0.7 157.08-20.7Q157.08-21.4 156.71-21.98 156.33-22.55 155.63-22.55L155.63-22.55Q154.43-22.55 153.03-20.4L153.03-20.4 152.28-21.2Q152.93-23 154.43-24.23 155.93-25.45 157.43-25.45L157.43-25.45Q159.53-25.45 160.56-24.45 161.58-23.45 161.58-21.7L161.58-21.7 161.58-8.55 161.78-8.55Q163.13-13 164.38-16.3 165.63-19.6 167.88-22.53 170.13-25.45 173.08-25.45L173.08-25.45ZM191.48-38.3L191.48-25 198.43-25 196.93-21.8 191.48-21.8 191.48-4.2Q191.48-3.45 191.93-2.98 192.38-2.5 193.13-2.5L193.13-2.5Q194.18-2.5 196.03-4.45L196.03-4.45 196.73-3.7Q195.78-1.8 194.46-0.88 193.13 0.05 191.96 0.28 190.78 0.5 190.78 0.3L190.78 0.3Q190.83 0.3 190.93 0.28 191.03 0.25 191.23 0.25L191.23 0.25Q186.83 0.25 186.83-4.8L186.83-4.8 186.83-21.8 183.08-21.8 184.63-25 186.83-25 186.83-36.5 191.48-38.3ZM212.83-25.45L213.73-24.4Q209.98-22 207.83-19.05 205.68-16.1 205.68-12.1L205.68-12.1Q205.68-9.85 206.63-7.58 207.58-5.3 209.48-3.8 211.38-2.3 214.03-2.3L214.03-2.3Q216.18-2.3 217.85-3.3 219.53-4.3 220.45-6 221.38-7.7 221.38-9.75L221.38-9.75Q221.38-12.1 219.95-14.55 218.53-17 216.23-18.7 213.93-20.4 211.53-20.6L211.53-20.6Q212.53-21.6 213.93-22.7 215.33-23.8 216.78-24.85L216.78-24.85Q220.23-23.7 222.23-20.48 224.23-17.25 224.23-13.3L224.23-13.3Q224.23-9.8 222.8-6.58 221.38-3.35 218.63-1.33 215.88 0.7 212.13 0.7L212.13 0.7Q209.13 0.7 206.6-0.78 204.08-2.25 202.63-4.8 201.18-7.35 201.18-10.45L201.18-10.45Q201.18-15.9 204.4-19.9 207.63-23.9 212.83-25.45L212.83-25.45ZM263.37-35.6L263.37-34.15Q257.82-33.4 253.37-30.33 248.92-27.25 246.4-22.58 243.87-17.9 243.87-12.45L243.87-12.45Q243.87-7.9 245.62-5.25 247.37-2.6 250.22-2.6L250.22-2.6Q253.02-2.6 255.6-6.48 258.17-10.35 259.75-16.63 261.32-22.9 261.32-29.7L261.32-29.7 266.02-31.55 266.02-5.35Q266.02-3.95 266.62-3.1 267.22-2.25 268.27-2.25L268.27-2.25Q269.07-2.25 269.92-2.78 270.77-3.3 271.22-4.05L271.22-4.05 271.92-3.4Q271.22-1.85 269.77-0.8 268.32 0.25 266.47 0.25L266.47 0.25Q264.17 0.25 262.75-1.35 261.32-2.95 261.32-5.9L261.32-5.9 261.32-15.45 261.07-15.45Q257.47 0.55 248.87 0.55L248.87 0.55Q244.42 0.55 241.72-2.58 239.02-5.7 239.02-11.15L239.02-11.15Q239.02-17.4 242.32-22.9 245.62-28.4 251.22-31.85 256.82-35.3 263.37-35.6L263.37-35.6ZM295.42-46.2L295.42-4.45Q295.42-3.75 295.75-3.18 296.07-2.6 296.77-2.6L296.77-2.6Q297.47-2.6 298.17-3.23 298.87-3.85 299.22-4.6L299.22-4.6 300.17-3.8Q299.37-2.1 297.9-0.93 296.42 0.25 295.02 0.25L295.02 0.25Q292.72 0.25 291.67-1.05 290.62-2.35 290.67-5.55L290.67-5.55 290.47-5.55Q287.42 0.6 283.02 0.6L283.02 0.6Q278.67 0.6 276.35-2.43 274.02-5.45 274.02-10L274.02-10Q274.02-13.6 275.57-17.15 277.12-20.7 280-23 282.87-25.3 286.62-25.3L286.62-25.3Q288.97-25.3 290.72-24.1L290.72-24.1 290.72-44.3 295.42-46.2ZM286.32-22.35Q283.52-22.35 281.7-20.6 279.87-18.85 279.02-16.38 278.17-13.9 278.17-11.75L278.17-11.75Q278.17-10.05 278.77-8 279.37-5.95 280.72-4.48 282.07-3 284.17-3L284.17-3Q287.97-3 289.35-6.28 290.72-9.55 290.72-13.5L290.72-13.5 290.72-20.35Q289.87-21.25 288.75-21.8 287.62-22.35 286.32-22.35L286.32-22.35ZM321.72-26.7Q323.72-26.05 324.82-24.55 325.92-23.05 325.92-21.1L325.92-21.1Q325.92-20.05 325.64-18.8 325.37-17.55 324.92-16.65L324.92-16.65 316.22 0.55Q316.12 0.65 315.79 0.75 315.47 0.85 315.22 0.85L315.22 0.85Q314.82 0.85 314.44 0.7 314.07 0.55 314.02 0.4L314.02 0.4 305.37-18.5Q304.12-20.8 302.77-20.8L302.77-20.8Q302.27-20.8 301.84-20.48 301.42-20.15 301.27-20.05L301.27-20.05 300.82-20.6Q301.42-22.5 303.04-23.75 304.67-25 306.32-25L306.32-25Q307.27-25 307.99-23.75 308.72-22.5 309.17-21.33 309.62-20.15 309.77-19.8L309.77-19.8 316.77-4.25 321.22-13.3Q321.27-13.45 321.64-14.4 322.02-15.35 322.02-16.25L322.02-16.25Q322.02-19.95 318.02-21.8L318.02-21.8 321.72-26.7ZM342.92-25.45Q345.62-25.45 347.42-24 349.22-22.55 349.22-19.7L349.22-19.7Q349.22-17.4 346.74-14.58 344.27-11.75 340.94-9.4 337.62-7.05 335.27-6.1L335.27-6.1Q336.52-4.1 338.12-3.33 339.72-2.55 341.87-2.55L341.87-2.55Q344.27-2.55 346.64-3.78 349.02-5 350.57-6.95L350.57-6.95 351.17-5.9Q348.72-2.75 345.97-1.07 343.22 0.6 339.22 0.6L339.22 0.6Q336.17 0.6 333.77-0.9 331.37-2.4 330.02-4.93 328.67-7.45 328.67-10.4L328.67-10.4Q328.67-14.1 330.67-17.6 332.67-21.1 335.97-23.28 339.27-25.45 342.92-25.45L342.92-25.45ZM340.32-22.3Q338.12-22.3 336.39-20.9 334.67-19.5 333.69-17.3 332.72-15.1 332.72-12.75L332.72-12.75Q332.72-9.65 334.17-7.45L334.17-7.45Q336.27-8.4 338.72-10.33 341.17-12.25 342.87-14.5 344.57-16.75 344.57-18.6L344.57-18.6Q344.57-22.3 340.32-22.3L340.32-22.3ZM374.16-25.45Q376.16-25.45 376.76-23.98 377.36-22.5 377.36-19.9L377.36-19.9 377.36-18.35 377.36-4.2Q377.36-3.65 377.71-3.08 378.06-2.5 378.71-2.5L378.71-2.5Q379.56-2.5 380.16-3.05 380.76-3.6 381.36-4.45L381.36-4.45 382.11-3.7Q381.36-2.1 379.86-0.93 378.36 0.25 377.01 0.25L377.01 0.25Q375.01 0.25 373.91-1 372.81-2.25 372.81-4.8L372.81-4.8 372.81-18.05Q372.81-18.8 372.66-19.3 372.51-19.8 371.91-19.8L371.91-19.8Q369.86-19.8 367.71-15.85 365.56-11.9 364.04-7.03 362.51-2.15 362.51-0.6L362.51-0.6 358.16 0.7 358.16-20.7Q358.16-21.4 357.79-21.98 357.41-22.55 356.71-22.55L356.71-22.55Q355.51-22.55 354.11-20.4L354.11-20.4 353.36-21.2Q354.01-23 355.51-24.23 357.01-25.45 358.51-25.45L358.51-25.45Q360.61-25.45 361.64-24.45 362.66-23.45 362.66-21.7L362.66-21.7 362.66-8.55 362.86-8.55Q364.21-13 365.46-16.3 366.71-19.6 368.96-22.53 371.21-25.45 374.16-25.45L374.16-25.45ZM392.56-38.3L392.56-25 399.51-25 398.01-21.8 392.56-21.8 392.56-4.2Q392.56-3.45 393.01-2.98 393.46-2.5 394.21-2.5L394.21-2.5Q395.26-2.5 397.11-4.45L397.11-4.45 397.81-3.7Q396.86-1.8 395.54-0.88 394.21 0.05 393.04 0.28 391.86 0.5 391.86 0.3L391.86 0.3Q391.91 0.3 392.01 0.28 392.11 0.25 392.31 0.25L392.31 0.25Q387.91 0.25 387.91-4.8L387.91-4.8 387.91-21.8 384.16-21.8 385.71-25 387.91-25 387.91-36.5 392.56-38.3ZM424.41-25.7L424.41-4.35Q424.41-3.6 424.78-3.13 425.16-2.65 425.86-2.65L425.86-2.65Q426.91-2.65 428.41-4.6L428.41-4.6 429.16-3.85Q428.11-1.6 426.63-0.68 425.16 0.25 425.16 0.25 425.16 0.25 423.86 0.25L423.86 0.25Q422.26 0.25 421.43-0.65 420.61-1.55 420.26-3.88 419.91-6.2 419.91-10.8L419.91-10.8Q419.91-13.55 419.96-15.2L419.96-15.2 419.56-16.2 419.41-16.2Q418.11-10.05 415.78-4.73 413.46 0.6 409.16 0.6L409.16 0.6Q407.56 0.6 406.83-0.2 406.11-1 405.96-2.38 405.81-3.75 405.81-6.6L405.81-6.6 405.81-20.7Q405.81-21.55 405.43-22.05 405.06-22.55 404.41-22.55L404.41-22.55Q403.21-22.55 401.71-20.55L401.71-20.55 401.11-21.35Q401.91-23.25 403.13-24.18 404.36-25.1 405.43-25.33 406.51-25.55 406.51-25.4L406.51-25.4Q406.46-25.4 406.36-25.38 406.26-25.35 406.06-25.35L406.06-25.35Q410.36-25.35 410.36-20.4L410.36-20.4 410.36-6Q410.36-4.9 410.61-4.42 410.86-3.95 411.21-3.95L411.21-3.95Q413.36-3.95 415.21-8.15 417.06-12.35 418.23-17.4 419.41-22.45 419.41-23.45L419.41-23.45 424.41-25.7ZM443.66-18.9Q441.41-16.55 439.78-12.78 438.16-9 438.16-5.9L438.16-5.9Q438.16-3.2 439.33-1.38 440.51 0.45 443.11 0.45L443.11 0.45Q445.21 0.45 447.13-0.65 449.06-1.75 450.41-3.5L450.41-3.5 449.86-4.25Q448.31-3.2 446.81-3.2L446.81-3.2Q444.46-3.2 443.26-4.85 442.06-6.5 442.06-8.85L442.06-8.85Q442.06-12.65 444.01-16.05 445.96-19.45 448.96-22.65L448.96-22.65 448.16-23.35Q444.66-21.15 441.76-21.15L441.76-21.15Q440.06-21.15 438.66-22.68 437.26-24.2 436.51-26.05L436.51-26.05 432.46-21.5Q432.81-20.5 434.36-19.2L434.36-19.2 431.01-12.2 432.86-11.35 436.11-18.5Q436.96-18.15 437.51-18.05 438.06-17.95 439.01-17.95L439.01-17.95Q441.46-17.95 443.51-19.05L443.51-19.05 443.66-18.9ZM468.35-25.45Q471.05-25.45 472.85-24 474.65-22.55 474.65-19.7L474.65-19.7Q474.65-17.4 472.18-14.58 469.7-11.75 466.38-9.4 463.05-7.05 460.7-6.1L460.7-6.1Q461.95-4.1 463.55-3.33 465.15-2.55 467.3-2.55L467.3-2.55Q469.7-2.55 472.08-3.78 474.45-5 476-6.95L476-6.95 476.6-5.9Q474.15-2.75 471.4-1.07 468.65 0.6 464.65 0.6L464.65 0.6Q461.6 0.6 459.2-0.9 456.8-2.4 455.45-4.93 454.1-7.45 454.1-10.4L454.1-10.4Q454.1-14.1 456.1-17.6 458.1-21.1 461.4-23.28 464.7-25.45 468.35-25.45L468.35-25.45ZM465.75-22.3Q463.55-22.3 461.83-20.9 460.1-19.5 459.13-17.3 458.15-15.1 458.15-12.75L458.15-12.75Q458.15-9.65 459.6-7.45L459.6-7.45Q461.7-8.4 464.15-10.33 466.6-12.25 468.3-14.5 470-16.75 470-18.6L470-18.6Q470-22.3 465.75-22.3L465.75-22.3ZM486.5-16.9Q486.5-18.2 485.6-19.13 484.7-20.05 483.45-20.05L483.45-20.05Q482.25-20.05 481.38-19.13 480.5-18.2 480.5-16.9L480.5-16.9Q480.5-15.75 481.38-14.85 482.25-13.95 483.45-13.95L483.45-13.95Q484.7-13.95 485.6-14.85 486.5-15.75 486.5-16.9L486.5-16.9ZM486.5-2.1Q486.5-3.35 485.6-4.25 484.7-5.15 483.45-5.15L483.45-5.15Q482.25-5.15 481.38-4.25 480.5-3.35 480.5-2.1L480.5-2.1Q480.5-0.85 481.38 0 482.25 0.85 483.45 0.85L483.45 0.85Q484.7 0.85 485.6 0 486.5-0.85 486.5-2.1L486.5-2.1ZM521.8-9Q520.6-5.05 518.1-2.53 515.6 0 511.6 0L511.6 0Q508.65 0 507.1-2.08 505.55-4.15 505.55-7.25L505.55-7.25 505.55-29.6Q505.55-30.9 505-31.75 504.45-32.6 503.25-32.6L503.25-32.6Q502.5-32.6 501.62-32.1 500.75-31.6 500.3-30.95L500.3-30.95 499.6-31.55Q500.25-33 501.72-34.1 503.2-35.2 504.65-35.2L504.65-35.2Q507.25-35.2 508.72-33.35 510.2-31.5 510.2-29.1L510.2-29.1 510.2-9.2Q510.2-6.45 510.85-4.58 511.5-2.7 513.7-2.7L513.7-2.7Q516.55-2.7 518.4-5.53 520.25-8.35 521.1-12.1 521.95-15.85 521.95-18.65L521.95-18.65 521.95-33.95 526.55-35.65 526.55-1.3Q526.55 2.05 525.15 4.9 523.75 7.75 521.12 9.45 518.5 11.15 515.05 11.15L515.05 11.15Q510.65 11.15 507.5 8.4L507.5 8.4 511.55 5Q512.3 6.45 513.8 7.68 515.3 8.9 517 8.9L517 8.9Q518.75 8.9 519.87 7.95 521 7 521.47 5.65 521.95 4.3 521.95 3.15L521.95 3.15 521.95-9 521.8-9ZM544.14-25.45L545.04-24.4Q541.29-22 539.14-19.05 536.99-16.1 536.99-12.1L536.99-12.1Q536.99-9.85 537.94-7.58 538.89-5.3 540.79-3.8 542.69-2.3 545.34-2.3L545.34-2.3Q547.49-2.3 549.17-3.3 550.84-4.3 551.77-6 552.69-7.7 552.69-9.75L552.69-9.75Q552.69-12.1 551.27-14.55 549.84-17 547.54-18.7 545.24-20.4 542.84-20.6L542.84-20.6Q543.84-21.6 545.24-22.7 546.64-23.8 548.09-24.85L548.09-24.85Q551.54-23.7 553.54-20.48 555.54-17.25 555.54-13.3L555.54-13.3Q555.54-9.8 554.12-6.58 552.69-3.35 549.94-1.33 547.19 0.7 543.44 0.7L543.44 0.7Q540.44 0.7 537.92-0.78 535.39-2.25 533.94-4.8 532.49-7.35 532.49-10.45L532.49-10.45Q532.49-15.9 535.72-19.9 538.94-23.9 544.14-25.45L544.14-25.45ZM581.94-25.7L581.94-4.35Q581.94-3.6 582.32-3.13 582.69-2.65 583.39-2.65L583.39-2.65Q584.44-2.65 585.94-4.6L585.94-4.6 586.69-3.85Q585.64-1.6 584.16-0.68 582.69 0.25 582.69 0.25 582.69 0.25 581.39 0.25L581.39 0.25Q579.79 0.25 578.97-0.65 578.14-1.55 577.79-3.88 577.44-6.2 577.44-10.8L577.44-10.8Q577.44-13.55 577.49-15.2L577.49-15.2 577.09-16.2 576.94-16.2Q575.64-10.05 573.32-4.73 570.99 0.6 566.69 0.6L566.69 0.6Q565.09 0.6 564.37-0.2 563.64-1 563.49-2.38 563.34-3.75 563.34-6.6L563.34-6.6 563.34-20.7Q563.34-21.55 562.97-22.05 562.59-22.55 561.94-22.55L561.94-22.55Q560.74-22.55 559.24-20.55L559.24-20.55 558.64-21.35Q559.44-23.25 560.66-24.18 561.89-25.1 562.97-25.33 564.04-25.55 564.04-25.4L564.04-25.4Q563.99-25.4 563.89-25.38 563.79-25.35 563.59-25.35L563.59-25.35Q567.89-25.35 567.89-20.4L567.89-20.4 567.89-6Q567.89-4.9 568.14-4.42 568.39-3.95 568.74-3.95L568.74-3.95Q570.89-3.95 572.74-8.15 574.59-12.35 575.76-17.4 576.94-22.45 576.94-23.45L576.94-23.45 581.94-25.7ZM601.19-18.9Q598.94-16.55 597.31-12.78 595.69-9 595.69-5.9L595.69-5.9Q595.69-3.2 596.86-1.38 598.04 0.45 600.64 0.45L600.64 0.45Q602.74 0.45 604.66-0.65 606.59-1.75 607.94-3.5L607.94-3.5 607.39-4.25Q605.84-3.2 604.34-3.2L604.34-3.2Q601.99-3.2 600.79-4.85 599.59-6.5 599.59-8.85L599.59-8.85Q599.59-12.65 601.54-16.05 603.49-19.45 606.49-22.65L606.49-22.65 605.69-23.35Q602.19-21.15 599.29-21.15L599.29-21.15Q597.59-21.15 596.19-22.68 594.79-24.2 594.04-26.05L594.04-26.05 589.99-21.5Q590.34-20.5 591.89-19.2L591.89-19.2 588.54-12.2 590.39-11.35 593.64-18.5Q594.49-18.15 595.04-18.05 595.59-17.95 596.54-17.95L596.54-17.95Q598.99-17.95 601.04-19.05L601.04-19.05 601.19-18.9ZM638.73-34.95L635.48-31.45Q633.93-29.6 633.28-28.15 632.63-26.7 632.63-25L632.63-25 632.63-5.55Q632.63-2.2 631.31 0.6 629.98 3.4 627.16 5.1 624.33 6.8 620.08 6.8L620.08 6.8Q618.08 6.8 615.96 6.08 613.83 5.35 612.03 4.15L612.03 4.15 616.23 0.75Q617.33 2.35 618.98 3.5 620.63 4.65 622.88 4.65L622.88 4.65Q625.63 4.65 626.81 2.9 627.98 1.15 627.98-1.25L627.98-1.25 627.98-22.1Q627.98-24.45 629.41-26.75 630.83-29.05 633.08-30.6L633.08-30.6 627.33-30.65Q625.38-30.65 624.01-29.98 622.63-29.3 621.28-27.8L621.28-27.8 620.38-28.6Q625.63-34.95 631.58-34.95L631.58-34.95 638.73-34.95ZM652.78-25.45L653.68-24.4Q649.93-22 647.78-19.05 645.63-16.1 645.63-12.1L645.63-12.1Q645.63-9.85 646.58-7.58 647.53-5.3 649.43-3.8 651.33-2.3 653.98-2.3L653.98-2.3Q656.13-2.3 657.8-3.3 659.48-4.3 660.4-6 661.33-7.7 661.33-9.75L661.33-9.75Q661.33-12.1 659.9-14.55 658.48-17 656.18-18.7 653.88-20.4 651.48-20.6L651.48-20.6Q652.48-21.6 653.88-22.7 655.28-23.8 656.73-24.85L656.73-24.85Q660.18-23.7 662.18-20.48 664.18-17.25 664.18-13.3L664.18-13.3Q664.18-9.8 662.75-6.58 661.33-3.35 658.58-1.33 655.83 0.7 652.08 0.7L652.08 0.7Q649.08 0.7 646.55-0.78 644.03-2.25 642.58-4.8 641.13-7.35 641.13-10.45L641.13-10.45Q641.13-15.9 644.35-19.9 647.58-23.9 652.78-25.45L652.78-25.45ZM690.58-25.7L690.58-4.35Q690.58-3.6 690.95-3.13 691.33-2.65 692.03-2.65L692.03-2.65Q693.08-2.65 694.58-4.6L694.58-4.6 695.33-3.85Q694.28-1.6 692.8-0.68 691.33 0.25 691.33 0.25 691.33 0.25 690.03 0.25L690.03 0.25Q688.43 0.25 687.6-0.65 686.78-1.55 686.43-3.88 686.08-6.2 686.08-10.8L686.08-10.8Q686.08-13.55 686.13-15.2L686.13-15.2 685.73-16.2 685.58-16.2Q684.28-10.05 681.95-4.73 679.63 0.6 675.33 0.6L675.33 0.6Q673.73 0.6 673-0.2 672.28-1 672.13-2.38 671.98-3.75 671.98-6.6L671.98-6.6 671.98-20.7Q671.98-21.55 671.6-22.05 671.23-22.55 670.58-22.55L670.58-22.55Q669.38-22.55 667.88-20.55L667.88-20.55 667.28-21.35Q668.08-23.25 669.3-24.18 670.53-25.1 671.6-25.33 672.68-25.55 672.68-25.4L672.68-25.4Q672.63-25.4 672.53-25.38 672.43-25.35 672.23-25.35L672.23-25.35Q676.53-25.35 676.53-20.4L676.53-20.4 676.53-6Q676.53-4.9 676.78-4.42 677.03-3.95 677.38-3.95L677.38-3.95Q679.53-3.95 681.38-8.15 683.23-12.35 684.4-17.4 685.58-22.45 685.58-23.45L685.58-23.45 690.58-25.7ZM709.82-18.9Q707.57-16.55 705.95-12.78 704.32-9 704.32-5.9L704.32-5.9Q704.32-3.2 705.5-1.38 706.67 0.45 709.27 0.45L709.27 0.45Q711.37 0.45 713.3-0.65 715.22-1.75 716.57-3.5L716.57-3.5 716.02-4.25Q714.47-3.2 712.97-3.2L712.97-3.2Q710.62-3.2 709.42-4.85 708.22-6.5 708.22-8.85L708.22-8.85Q708.22-12.65 710.17-16.05 712.12-19.45 715.12-22.65L715.12-22.65 714.32-23.35Q710.82-21.15 707.92-21.15L707.92-21.15Q706.22-21.15 704.82-22.68 703.42-24.2 702.67-26.05L702.67-26.05 698.62-21.5Q698.97-20.5 700.52-19.2L700.52-19.2 697.17-12.2 699.02-11.35 702.27-18.5Q703.12-18.15 703.67-18.05 704.22-17.95 705.17-17.95L705.17-17.95Q707.62-17.95 709.67-19.05L709.67-19.05 709.82-18.9ZM739.67-25.45Q741.67-25.45 742.27-23.98 742.87-22.5 742.87-19.9L742.87-19.9 742.87-18.35 742.87-4.2Q742.87-3.65 743.22-3.08 743.57-2.5 744.22-2.5L744.22-2.5Q745.07-2.5 745.67-3.05 746.27-3.6 746.87-4.45L746.87-4.45 747.62-3.7Q746.87-2.1 745.37-0.93 743.87 0.25 742.52 0.25L742.52 0.25Q740.52 0.25 739.42-1 738.32-2.25 738.32-4.8L738.32-4.8 738.32-18.05Q738.32-18.8 738.17-19.3 738.02-19.8 737.42-19.8L737.42-19.8Q735.37-19.8 733.22-15.85 731.07-11.9 729.55-7.03 728.02-2.15 728.02-0.6L728.02-0.6 723.67 0.7 723.67-20.7Q723.67-21.4 723.3-21.98 722.92-22.55 722.22-22.55L722.22-22.55Q721.02-22.55 719.62-20.4L719.62-20.4 718.87-21.2Q719.52-23 721.02-24.23 722.52-25.45 724.02-25.45L724.02-25.45Q726.12-25.45 727.15-24.45 728.17-23.45 728.17-21.7L728.17-21.7 728.17-8.55 728.37-8.55Q729.72-13 730.97-16.3 732.22-19.6 734.47-22.53 736.72-25.45 739.67-25.45L739.67-25.45ZM764.92-25.45Q767.62-25.45 769.42-24 771.22-22.55 771.22-19.7L771.22-19.7Q771.22-17.4 768.74-14.58 766.27-11.75 762.94-9.4 759.62-7.05 757.27-6.1L757.27-6.1Q758.52-4.1 760.12-3.33 761.72-2.55 763.87-2.55L763.87-2.55Q766.27-2.55 768.64-3.78 771.02-5 772.57-6.95L772.57-6.95 773.17-5.9Q770.72-2.75 767.97-1.07 765.22 0.6 761.22 0.6L761.22 0.6Q758.17 0.6 755.77-0.9 753.37-2.4 752.02-4.93 750.67-7.45 750.67-10.4L750.67-10.4Q750.67-14.1 752.67-17.6 754.67-21.1 757.97-23.28 761.27-25.45 764.92-25.45L764.92-25.45ZM762.32-22.3Q760.12-22.3 758.39-20.9 756.67-19.5 755.69-17.3 754.72-15.1 754.72-12.75L754.72-12.75Q754.72-9.65 756.17-7.45L756.17-7.45Q758.27-8.4 760.72-10.33 763.17-12.25 764.87-14.5 766.57-16.75 766.57-18.6L766.57-18.6Q766.57-22.3 762.32-22.3L762.32-22.3ZM798.72-25.7L798.72-2.7Q798.72 2 796.84 6.1 794.97 10.2 791.87 12.65 788.77 15.1 785.27 15.1L785.27 15.1Q783.92 15.1 782.72 14.7 781.52 14.3 780.22 13.35L780.22 13.35 783.72 8.9Q784.77 9.95 786.19 10.6 787.62 11.25 788.87 11.25L788.87 11.25Q790.42 11.25 791.67 9.4 792.92 7.55 793.64 4.3 794.37 1.05 794.37-3.05L794.37-3.05Q794.37-12.35 794.42-15L794.42-15 794.42-18 794.12-18Q790.02 0.6 783.47 0.6L783.47 0.6Q782.02 0.6 781.32 0.03 780.62-0.55 780.37-2.05 780.12-3.55 780.12-6.6L780.12-6.6 780.12-20.7Q780.12-21.5 779.72-22.05 779.32-22.6 778.72-22.6L778.72-22.6Q777.47-22.6 776.07-20.55L776.07-20.55 775.27-21.35Q776.37-23.7 777.44-24.55 778.52-25.4 780.57-25.4L780.57-25.4Q782.57-25.4 783.57-24.13 784.57-22.85 784.57-20.4L784.57-20.4 784.57-6.75Q784.57-4.9 785.62-4.9L785.62-4.9Q786.87-4.9 788.82-8.3 790.77-11.7 792.27-16.18 793.77-20.65 793.77-23.45L793.77-23.45 798.72-25.7ZM828.66-36.4Q832.01-36.4 835.01-34.88 838.01-33.35 840.06-30.55L840.06-30.55 836.16-25.75Q834.91-29.25 832.44-31.55 829.96-33.85 826.56-33.85L826.56-33.85Q823.31-33.85 821.51-32 819.71-30.15 819.71-27.25L819.71-27.25Q819.71-24.55 821.01-22.75 822.31-20.95 824.16-19.85 826.01-18.75 829.16-17.35L829.16-17.35Q832.16-16 833.89-15 835.61-14 836.81-12.4 838.01-10.8 838.01-8.45L838.01-8.45Q838.06-4.1 835.21-1.75 832.36 0.6 827.81 0.6L827.81 0.6Q824.46 0.6 821.44-0.73 818.41-2.05 816.61-4.75L816.61-4.75 820.51-9.1Q822.21-5.1 824.66-3.43 827.11-1.75 829.41-1.75L829.41-1.75Q831.56-1.75 833.09-2.93 834.61-4.1 834.61-6L834.61-6Q834.61-7.75 833.54-9.08 832.46-10.4 830.86-11.33 829.26-12.25 826.51-13.5L826.51-13.5Q823.01-15.1 820.91-16.4 818.81-17.7 817.31-19.83 815.81-21.95 815.81-25L815.81-25Q815.81-28.2 817.49-30.83 819.16-33.45 822.11-34.93 825.06-36.4 828.66-36.4L828.66-36.4ZM849.56-38.3L849.56-25 856.51-25 855.01-21.8 849.56-21.8 849.56-4.2Q849.56-3.45 850.01-2.98 850.46-2.5 851.21-2.5L851.21-2.5Q852.26-2.5 854.11-4.45L854.11-4.45 854.81-3.7Q853.86-1.8 852.53-0.88 851.21 0.05 850.03 0.28 848.86 0.5 848.86 0.3L848.86 0.3Q848.91 0.3 849.01 0.28 849.11 0.25 849.31 0.25L849.31 0.25Q844.91 0.25 844.91-4.8L844.91-4.8 844.91-21.8 841.16-21.8 842.71-25 844.91-25 844.91-36.5 849.56-38.3ZM872.86-25Q875.31-25 877.48-23.95 879.66-22.9 880.66-20.75L880.66-20.75 877.06-18.8Q876.26-19.95 874.86-20.88 873.46-21.8 871.86-21.8L871.86-21.8Q869.31-21.8 867.41-20.48 865.51-19.15 864.51-16.9 863.51-14.65 863.51-11.9L863.51-11.9Q863.51-7.95 864.86-5.48 866.21-3 869.11-3L869.11-3Q873.21-3 874.76-6.3 876.31-9.6 876.31-13.5L876.31-13.5 876.31-15.75 880.71-17.6 880.71-4.45Q880.71-3.8 881.06-3.2 881.41-2.6 882.11-2.6L882.11-2.6Q883.56-2.6 884.76-4.6L884.76-4.6 885.51-3.8Q884.91-2.1 883.41-0.93 881.91 0.25 880.41 0.25L880.41 0.25Q878.26 0.25 877.23-1.35 876.21-2.95 876.21-5.6L876.21-5.6 876.11-5.6Q874.86-2.95 872.73-1.18 870.61 0.6 868.26 0.6L868.26 0.6Q864.01 0.6 861.83-2.33 859.66-5.25 859.66-10.15L859.66-10.15Q859.66-14.05 861.41-17.48 863.16-20.9 866.18-22.95 869.21-25 872.86-25L872.86-25ZM899.75-18.9Q897.5-16.55 895.88-12.78 894.25-9 894.25-5.9L894.25-5.9Q894.25-3.2 895.43-1.38 896.6 0.45 899.2 0.45L899.2 0.45Q901.3 0.45 903.23-0.65 905.15-1.75 906.5-3.5L906.5-3.5 905.95-4.25Q904.4-3.2 902.9-3.2L902.9-3.2Q900.55-3.2 899.35-4.85 898.15-6.5 898.15-8.85L898.15-8.85Q898.15-12.65 900.1-16.05 902.05-19.45 905.05-22.65L905.05-22.65 904.25-23.35Q900.75-21.15 897.85-21.15L897.85-21.15Q896.15-21.15 894.75-22.68 893.35-24.2 892.6-26.05L892.6-26.05 888.55-21.5Q888.9-20.5 890.45-19.2L890.45-19.2 887.1-12.2 888.95-11.35 892.2-18.5Q893.05-18.15 893.6-18.05 894.15-17.95 895.1-17.95L895.1-17.95Q897.55-17.95 899.6-19.05L899.6-19.05 899.75-18.9ZM917.6-38.3L917.6-25 924.55-25 923.05-21.8 917.6-21.8 917.6-4.2Q917.6-3.45 918.05-2.98 918.5-2.5 919.25-2.5L919.25-2.5Q920.3-2.5 922.15-4.45L922.15-4.45 922.85-3.7Q921.9-1.8 920.58-0.88 919.25 0.05 918.08 0.28 916.9 0.5 916.9 0.3L916.9 0.3Q916.95 0.3 917.05 0.28 917.15 0.25 917.35 0.25L917.35 0.25Q912.95 0.25 912.95-4.8L912.95-4.8 912.95-21.8 909.2-21.8 910.75-25 912.95-25 912.95-36.5 917.6-38.3ZM935-27.05Q936.7-27.05 937.47-26.45 938.25-25.85 938.25-24.6L938.25-24.6Q938.25-23.25 937.72-22.2 937.2-21.15 936.6-20.4 936-19.65 935.8-19.35L935.8-19.35Q936.4-18.35 938.05-17L938.05-17Q939.4-15.85 940.2-14.95 941-14.05 941.57-12.53 942.15-11 942.15-8.8L942.15-8.8Q942.15-6.2 940.97-4.05 939.8-1.9 937.72-0.65 935.65 0.6 933.05 0.6L933.05 0.6Q931.45 0.6 929.55-0.08 927.65-0.75 926.75-2L926.75-2 930.1-6.45Q931.3-4.9 932.62-3.8 933.95-2.7 935.5-2.7L935.5-2.7Q937.65-2.7 939.17-4.13 940.7-5.55 940.7-7.55L940.7-7.55Q940.7-9.15 939.37-10.73 938.05-12.3 935.65-14.45L935.65-14.45Q935.35-14.7 934.5-15.48 933.65-16.25 933.25-16.75L933.25-16.75 929.75-11.6 928.15-12.65 932.15-18.2Q931.45-20.15 931.45-22.05L931.45-22.05Q931.45-24.2 932.4-25.63 933.35-27.05 935-27.05L935-27.05ZM935-25.1Q934.35-25.1 934.17-24.75 934-24.4 934-23.7L934-23.7Q934-22.8 934.25-22.15 934.5-21.5 934.6-21.25L934.6-21.25Q935.15-21.6 935.62-22.53 936.1-23.45 936.1-24.1L936.1-24.1Q936.1-24.55 935.82-24.83 935.55-25.1 935-25.1L935-25.1ZM983.59-36.5L978.94-34.7 978.94-16.8 964.89-16.8 964.89-36.5 960.19-34.7 960.19-16.8 957.59-16.8 956.14-13.85 960.19-13.85 960.19 0.7 964.89-1 964.89-13.85 978.94-13.85 978.94 0.7 983.59-1 983.59-36.5ZM1003.49-25.45Q1006.19-25.45 1007.99-24 1009.79-22.55 1009.79-19.7L1009.79-19.7Q1009.79-17.4 1007.32-14.58 1004.84-11.75 1001.52-9.4 998.19-7.05 995.84-6.1L995.84-6.1Q997.09-4.1 998.69-3.33 1000.29-2.55 1002.44-2.55L1002.44-2.55Q1004.84-2.55 1007.22-3.78 1009.59-5 1011.14-6.95L1011.14-6.95 1011.74-5.9Q1009.29-2.75 1006.54-1.07 1003.79 0.6 999.79 0.6L999.79 0.6Q996.74 0.6 994.34-0.9 991.94-2.4 990.59-4.93 989.24-7.45 989.24-10.4L989.24-10.4Q989.24-14.1 991.24-17.6 993.24-21.1 996.54-23.28 999.84-25.45 1003.49-25.45L1003.49-25.45ZM1000.89-22.3Q998.69-22.3 996.97-20.9 995.24-19.5 994.27-17.3 993.29-15.1 993.29-12.75L993.29-12.75Q993.29-9.65 994.74-7.45L994.74-7.45Q996.84-8.4 999.29-10.33 1001.74-12.25 1003.44-14.5 1005.14-16.75 1005.14-18.6L1005.14-18.6Q1005.14-22.3 1000.89-22.3L1000.89-22.3ZM1026.89-18.9Q1024.64-16.55 1023.01-12.78 1021.39-9 1021.39-5.9L1021.39-5.9Q1021.39-3.2 1022.56-1.38 1023.74 0.45 1026.34 0.45L1026.34 0.45Q1028.44 0.45 1030.36-0.65 1032.29-1.75 1033.64-3.5L1033.64-3.5 1033.09-4.25Q1031.54-3.2 1030.04-3.2L1030.04-3.2Q1027.69-3.2 1026.49-4.85 1025.29-6.5 1025.29-8.85L1025.29-8.85Q1025.29-12.65 1027.24-16.05 1029.19-19.45 1032.19-22.65L1032.19-22.65 1031.39-23.35Q1027.89-21.15 1024.99-21.15L1024.99-21.15Q1023.29-21.15 1021.89-22.68 1020.49-24.2 1019.74-26.05L1019.74-26.05 1015.69-21.5Q1016.04-20.5 1017.59-19.2L1017.59-19.2 1014.24-12.2 1016.09-11.35 1019.34-18.5Q1020.19-18.15 1020.74-18.05 1021.29-17.95 1022.24-17.95L1022.24-17.95Q1024.69-17.95 1026.74-19.05L1026.74-19.05 1026.89-18.9ZM1051.59-25.45Q1054.29-25.45 1056.09-24 1057.89-22.55 1057.89-19.7L1057.89-19.7Q1057.89-17.4 1055.41-14.58 1052.94-11.75 1049.61-9.4 1046.29-7.05 1043.94-6.1L1043.94-6.1Q1045.19-4.1 1046.79-3.33 1048.39-2.55 1050.54-2.55L1050.54-2.55Q1052.94-2.55 1055.31-3.78 1057.69-5 1059.24-6.95L1059.24-6.95 1059.84-5.9Q1057.39-2.75 1054.64-1.07 1051.89 0.6 1047.89 0.6L1047.89 0.6Q1044.84 0.6 1042.44-0.9 1040.04-2.4 1038.69-4.93 1037.34-7.45 1037.34-10.4L1037.34-10.4Q1037.34-14.1 1039.34-17.6 1041.34-21.1 1044.64-23.28 1047.94-25.45 1051.59-25.45L1051.59-25.45ZM1048.99-22.3Q1046.79-22.3 1045.06-20.9 1043.34-19.5 1042.36-17.3 1041.39-15.1 1041.39-12.75L1041.39-12.75Q1041.39-9.65 1042.84-7.45L1042.84-7.45Q1044.94-8.4 1047.39-10.33 1049.84-12.25 1051.54-14.5 1053.24-16.75 1053.24-18.6L1053.24-18.6Q1053.24-22.3 1048.99-22.3L1048.99-22.3ZM1063.98-33.7L1066.08-7.45 1068.53-8.2 1070.53-35.6 1063.98-33.7ZM1070.33-2.1Q1070.33-3.35 1069.43-4.25 1068.53-5.15 1067.33-5.15L1067.33-5.15Q1066.08-5.15 1065.18-4.25 1064.28-3.35 1064.28-2.1L1064.28-2.1Q1064.28-0.85 1065.16 0 1066.03 0.85 1067.33 0.85L1067.33 0.85Q1068.53 0.85 1069.43 0 1070.33-0.85 1070.33-2.1L1070.33-2.1Z" opacity="1" transform="matrix(1,0,0,1,0,0)" fill="black" class="slogan-text-1" id="SvgjsPath1098"></path></svg></g></svg></g></svg></g></svg></g><g transform="matrix(1,0,0,1,426.46810555721254,0)"><svg viewBox="0 0 214.48851839999998 214.48851839999998" height="214.48851839999998" width="214.48851839999998"><g><svg></svg></g><g id="SvgjsG1097"><svg viewBox="0 0 214.48851839999998 214.48851839999998" height="214.48851839999998" width="214.48851839999998"><g><rect width="195.02567136" height="195.02567136" x="9.731423519999993" y="9.731423519999993" fill="white"></rect><rect width="195.02567136" height="195.02567136" x="-5.329070518200751e-15" y="-5.329070518200751e-15" fill="white" opacity="0.5"></rect></g><g transform="matrix(1,0,0,1,27.80406719999999,59.34165977393146)"><svg viewBox="0 0 158.880384 95.80519885213705" height="95.80519885213705" width="158.880384"><g><svg version="1.1" xmlns="http://www.w3.org/2000/svg" xmlns:xlink="http://www.w3.org/1999/xlink" x="0" y="0" viewBox="0.599 19.74299999999999 99.99799999999999 60.29900000000001" enable-background="new 0.599 19.744 100 60.3" xml:space="preserve" width="158.880384" height="95.80519885213705" class="icon-cg-0" data-fill-palette-color="quaternary" id="SvgjsSvg1096"><g fill="black"><path d="M0.599 59.318c0 11.361 9.245 20.606 20.606 20.606 11.363 0 20.607-9.245 20.607-20.606 0-8.443-5.107-15.713-12.393-18.893l1.015-2.896 23.9 24.752c0.027 0.026 0.059 0.048 0.086 0.074 0.033 0.028 0.067 0.059 0.104 0.086 0.051 0.036 0.104 0.067 0.158 0.098 0.035 0.02 0.071 0.041 0.106 0.058 0.063 0.028 0.129 0.048 0.196 0.068 0.03 0.01 0.062 0.022 0.094 0.028 0.102 0.021 0.203 0.033 0.306 0.033 0.036 0 0.073-0.003 0.109-0.005l4.111-0.308c1.445 9.959 10.036 17.629 20.388 17.629 11.361 0 20.605-9.25 20.605-20.611 0-11.362-9.244-20.617-20.605-20.617-3.013 0-5.873 0.632-8.454 1.799l-5.558-10.337 2.006-6.9h3.294c0.807 0 1.459-1.01 1.459-1.816s-0.652-1.817-1.459-1.817H60.172c-0.807 0-1.46 1.01-1.46 1.817s0.653 1.816 1.46 1.816h4.772l-1.63 4.845H32.591l0.575-2.213c0.095-0.431-0.012-0.611-0.289-0.956-0.276-0.344-0.695-0.465-1.137-0.465h-9.127c-0.807 0-1.461 0.404-1.461 1.211 0 0.806 0.654 1.211 1.461 1.211h7.314l-0.578 2.927c-0.002 0.002-0.002 0.147-0.003 0.15l-0.914 4.255-1.767 5.075c-1.74-0.479-3.569-0.723-5.46-0.723C9.844 38.695 0.599 47.956 0.599 59.318zM62.458 31.855l-7.766 26.436L31.432 34.362l0.521-2.507H62.458zM63.009 62.167L80.1 60.898c0.492-0.035 0.935-0.32 1.172-0.754 0.239-0.434 0.239-0.958 0.006-1.393l-8.123-15.087c2.098-0.912 4.409-1.421 6.839-1.421 9.484 0 17.199 7.716 17.199 17.201 0 9.483-7.716 17.199-17.2 17.199C71.435 76.644 64.318 70.362 63.009 62.167zM77.64 58.155l-14.844 1.1c0.064-5.935 3.151-11.158 7.79-14.202L77.64 58.155zM57.467 59.657l7.389-25.33 4.224 7.721c-5.756 3.659-9.517 10.086-9.517 17.396 0 0.021 0 0.042 0 0.063L57.467 59.657zM4.006 59.318c0-9.484 7.715-17.2 17.199-17.2 1.496 0 2.949 0.193 4.332 0.554l-5.709 16.29c-0.266 0.76 0.133 1.592 0.895 1.858 0.16 0.058 0.323 0.083 0.482 0.083 0.603 0 1.167-0.377 1.378-0.978l5.706-16.275c5.96 2.705 10.118 8.707 10.118 15.667 0 9.484-7.716 17.2-17.2 17.2S4.006 68.803 4.006 59.318z" fill="black"></path></g></svg></g></svg></g></svg></g></svg></g></svg></g><defs><mask></mask></defs></svg><rect width="395.52" height="132.35606845562637" fill="black" stroke="none" visibility="hidden"></rect></g></mask><linearGradient x1="0" x2="1" y1="0.548" y2="0.55" id="2a77c677-4447-469c-99f3-742125990f3f"><stop stop-color="#ff6cab" offset="0"></stop><stop stop-color="#7366ff" offset="1"></stop></linearGradient><rect width="395.52" height="132.35606845562637" fill="#ffffff" mask="url(#6b9ff340-8b25-448b-b9e7-733a83a44f29)" data-fill-palette-color="accent"></rect></svg><rect width="395.52" height="132.35606845562637" fill="none" stroke="none" visibility="hidden"></rect></g></svg></g></svg>